<mxfile host="65bd71144e">
    <diagram id="B3RDbLPAY9GJ5ZYiYai2" name="Page-1">
        <mxGraphModel dx="1342" dy="1416" grid="1" gridSize="10" guides="1" tooltips="1" connect="1" arrows="1" fold="1" page="1" pageScale="1" pageWidth="850" pageHeight="1100" math="0" shadow="0">
            <root>
                <mxCell id="0"/>
                <mxCell id="1" parent="0"/>
                <mxCell id="430" value="" style="rounded=1;whiteSpace=wrap;html=1;fontColor=#FFFFFF;fillColor=#000000;" vertex="1" parent="1">
                    <mxGeometry x="85" y="-176.87" width="120" height="60" as="geometry"/>
                </mxCell>
                <mxCell id="429" value="" style="rounded=1;whiteSpace=wrap;html=1;fontColor=#FFFFFF;fillColor=#000000;" vertex="1" parent="1">
                    <mxGeometry x="-376.25" y="-156.61" width="120" height="60" as="geometry"/>
                </mxCell>
                <mxCell id="412" value="" style="shape=flexArrow;endArrow=none;html=1;strokeColor=default;fontColor=#FFFFFF;fillColor=default;entryX=0;entryY=0.25;entryDx=0;entryDy=0;" edge="1" parent="1" target="407">
                    <mxGeometry width="50" height="50" relative="1" as="geometry">
                        <mxPoint x="1794.38" y="-124.73999999999978" as="sourcePoint"/>
                        <mxPoint x="650" y="-350" as="targetPoint"/>
                    </mxGeometry>
                </mxCell>
                <mxCell id="307" value="" style="curved=1;endArrow=classic;html=1;strokeColor=default;fontColor=#FFFFFF;fillColor=#000000;shape=flexArrow;entryX=1;entryY=0.5;entryDx=0;entryDy=0;" edge="1" parent="1" target="29">
                    <mxGeometry width="50" height="50" relative="1" as="geometry">
                        <mxPoint x="1070" y="-60" as="sourcePoint"/>
                        <mxPoint x="880" y="160" as="targetPoint"/>
                        <Array as="points">
                            <mxPoint x="1070" y="-120"/>
                            <mxPoint x="930" y="-110"/>
                        </Array>
                    </mxGeometry>
                </mxCell>
                <mxCell id="293" value="" style="shape=flexArrow;endArrow=classic;html=1;strokeColor=default;fontColor=#FFFFFF;fillColor=#000000;" edge="1" parent="1">
                    <mxGeometry width="50" height="50" relative="1" as="geometry">
                        <mxPoint x="590" y="-80" as="sourcePoint"/>
                        <mxPoint x="370" y="-90" as="targetPoint"/>
                    </mxGeometry>
                </mxCell>
                <mxCell id="250" value="" style="shape=flexArrow;endArrow=classic;html=1;strokeColor=default;fontColor=#FFFFFF;fillColor=#000000;exitX=0;exitY=0.75;exitDx=0;exitDy=0;" edge="1" parent="1" source="20">
                    <mxGeometry width="50" height="50" relative="1" as="geometry">
                        <mxPoint x="20" y="-70.62" as="sourcePoint"/>
                        <mxPoint x="-110" y="-71" as="targetPoint"/>
                    </mxGeometry>
                </mxCell>
                <mxCell id="3" value="" style="rounded=0;whiteSpace=wrap;html=1;rotation=90;fillColor=#f5f5f5;fontColor=#333333;strokeColor=#666666;" parent="1" vertex="1">
                    <mxGeometry x="-495" y="21.879999999999995" width="495" height="257.5" as="geometry"/>
                </mxCell>
                <mxCell id="5" value="Home Screen" style="text;html=1;align=center;verticalAlign=middle;resizable=0;points=[];autosize=1;strokeColor=none;fillColor=#000000;fontColor=#FFFFFF;" parent="1" vertex="1">
                    <mxGeometry x="-366.25" y="-143.74" width="100" height="30" as="geometry"/>
                </mxCell>
                <mxCell id="6" value="&lt;font color=&quot;#000000&quot; style=&quot;font-size: 8px;&quot;&gt;Welcome to School&lt;/font&gt;" style="text;html=1;align=center;verticalAlign=middle;whiteSpace=wrap;rounded=0;" parent="1" vertex="1">
                    <mxGeometry x="-288.12" y="-46.870000000000005" width="81.25" height="30" as="geometry"/>
                </mxCell>
                <mxCell id="7" value="View All Terms" style="rounded=1;whiteSpace=wrap;html=1;fontSize=8;fillColor=#6a00ff;fontColor=#ffffff;strokeColor=#3700CC;" parent="1" vertex="1">
                    <mxGeometry x="-287.87" y="103.13" width="81" height="30" as="geometry"/>
                </mxCell>
                <mxCell id="8" value="" style="rounded=0;whiteSpace=wrap;html=1;rotation=90;fillColor=#f5f5f5;fontColor=#333333;strokeColor=#666666;" parent="1" vertex="1">
                    <mxGeometry x="-30" y="4.3799999999999955" width="495" height="257.5" as="geometry"/>
                </mxCell>
                <mxCell id="10" value="" style="rounded=1;whiteSpace=wrap;html=1;fontSize=8;fontColor=#ffffff;fillColor=#6a00ff;strokeColor=#3700CC;" parent="1" vertex="1">
                    <mxGeometry x="300" y="335.63" width="40" height="40" as="geometry"/>
                </mxCell>
                <mxCell id="11" value="" style="shape=cross;whiteSpace=wrap;html=1;fontSize=8;fontColor=#000000;size=0.24814588758680808;" parent="1" vertex="1">
                    <mxGeometry x="305" y="340.63" width="30" height="30" as="geometry"/>
                </mxCell>
                <mxCell id="12" value="Term Name" style="shape=ext;double=1;rounded=1;whiteSpace=wrap;html=1;fontSize=8;fontColor=#ffffff;fillColor=#6a00ff;strokeColor=#3700CC;" parent="1" vertex="1">
                    <mxGeometry x="97.5" y="-79.37" width="240" height="40" as="geometry"/>
                </mxCell>
                <mxCell id="13" value="Term Name" style="shape=ext;double=1;rounded=1;whiteSpace=wrap;html=1;fontSize=8;fontColor=#ffffff;fillColor=#6a00ff;strokeColor=#3700CC;" parent="1" vertex="1">
                    <mxGeometry x="97.5" y="-29.370000000000005" width="240" height="40" as="geometry"/>
                </mxCell>
                <mxCell id="14" value="" style="rounded=0;whiteSpace=wrap;html=1;rotation=90;fillColor=#f5f5f5;fontColor=#333333;strokeColor=#666666;" parent="1" vertex="1">
                    <mxGeometry x="480" y="20" width="495" height="257.5" as="geometry"/>
                </mxCell>
                <mxCell id="15" value="Course List" style="text;html=1;align=center;verticalAlign=middle;resizable=0;points=[];autosize=1;strokeColor=none;fillColor=#000000;fontColor=#FFFFFF;" parent="1" vertex="1">
                    <mxGeometry x="595" y="-135" width="80" height="30" as="geometry"/>
                </mxCell>
                <mxCell id="16" value="" style="rounded=1;whiteSpace=wrap;html=1;fontSize=8;fontColor=#ffffff;fillColor=#6a00ff;strokeColor=#3700CC;" parent="1" vertex="1">
                    <mxGeometry x="805" y="350" width="40" height="40" as="geometry"/>
                </mxCell>
                <mxCell id="17" value="" style="shape=cross;whiteSpace=wrap;html=1;fontSize=8;fontColor=#000000;size=0.24814588758680808;" parent="1" vertex="1">
                    <mxGeometry x="810" y="355" width="30" height="30" as="geometry"/>
                </mxCell>
                <mxCell id="18" value="Course Name" style="shape=ext;double=1;rounded=1;whiteSpace=wrap;html=1;fontSize=8;fontColor=#ffffff;fillColor=#6a00ff;strokeColor=#3700CC;" parent="1" vertex="1">
                    <mxGeometry x="607.5" y="-61.25" width="240" height="40" as="geometry"/>
                </mxCell>
                <mxCell id="19" value="Course Name" style="shape=ext;double=1;rounded=1;whiteSpace=wrap;html=1;fontSize=8;fontColor=#ffffff;fillColor=#6a00ff;strokeColor=#3700CC;" parent="1" vertex="1">
                    <mxGeometry x="607.5" y="-10" width="240" height="40" as="geometry"/>
                </mxCell>
                <mxCell id="20" value="" style="rounded=0;whiteSpace=wrap;html=1;fontSize=8;fontColor=#ffffff;fillColor=#6a00ff;strokeColor=#3700CC;" parent="1" vertex="1">
                    <mxGeometry x="87.5" y="-114.37" width="260" height="30" as="geometry"/>
                </mxCell>
                <mxCell id="21" value="" style="shape=flexArrow;endArrow=classic;html=1;fontSize=8;fontColor=#000000;width=6.666666666666666;endSize=5.166666666666667;strokeColor=#000000;fillColor=default;" parent="1" edge="1">
                    <mxGeometry width="50" height="50" relative="1" as="geometry">
                        <mxPoint x="130" y="-99.37" as="sourcePoint"/>
                        <mxPoint x="90" y="-99.79" as="targetPoint"/>
                    </mxGeometry>
                </mxCell>
                <mxCell id="22" value="&lt;font style=&quot;font-size: 10px;&quot; color=&quot;#ffffff&quot;&gt;C196 Exam&lt;/font&gt;" style="text;html=1;strokeColor=none;fillColor=none;align=center;verticalAlign=middle;whiteSpace=wrap;rounded=0;fontSize=8;fontColor=#000000;" parent="1" vertex="1">
                    <mxGeometry x="130" y="-114.37" width="60" height="30" as="geometry"/>
                </mxCell>
                <mxCell id="23" value="Add Notification" style="text;html=1;strokeColor=none;fillColor=none;align=center;verticalAlign=middle;whiteSpace=wrap;rounded=0;fontSize=10;fontColor=#FFFFFF;" parent="1" vertex="1">
                    <mxGeometry x="290" y="-114.37" width="60" height="30" as="geometry"/>
                </mxCell>
                <mxCell id="26" value="" style="rounded=0;whiteSpace=wrap;html=1;fontSize=8;fontColor=#ffffff;fillColor=#6a00ff;strokeColor=#3700CC;" parent="1" vertex="1">
                    <mxGeometry x="596.25" y="-100" width="260" height="30" as="geometry"/>
                </mxCell>
                <mxCell id="27" value="" style="shape=flexArrow;endArrow=classic;html=1;fontSize=8;fontColor=#000000;width=6.666666666666666;endSize=5.166666666666667;strokeColor=#000000;fillColor=default;" parent="1" edge="1">
                    <mxGeometry width="50" height="50" relative="1" as="geometry">
                        <mxPoint x="638.75" y="-85" as="sourcePoint"/>
                        <mxPoint x="598.75" y="-85.41999999999996" as="targetPoint"/>
                    </mxGeometry>
                </mxCell>
                <mxCell id="28" value="&lt;font style=&quot;font-size: 10px;&quot; color=&quot;#ffffff&quot;&gt;C196 Exam&lt;/font&gt;" style="text;html=1;strokeColor=none;fillColor=none;align=center;verticalAlign=middle;whiteSpace=wrap;rounded=0;fontSize=8;fontColor=#000000;" parent="1" vertex="1">
                    <mxGeometry x="638.75" y="-100" width="60" height="20" as="geometry"/>
                </mxCell>
                <mxCell id="29" value="Add Notification" style="text;html=1;strokeColor=none;fillColor=none;align=center;verticalAlign=middle;whiteSpace=wrap;rounded=0;fontSize=10;fontColor=#FFFFFF;" parent="1" vertex="1">
                    <mxGeometry x="798.75" y="-100" width="60" height="30" as="geometry"/>
                </mxCell>
                <mxCell id="30" value="&lt;font style=&quot;font-size: 8px;&quot;&gt;Term Start - End&lt;/font&gt;" style="text;html=1;strokeColor=none;fillColor=none;align=center;verticalAlign=middle;whiteSpace=wrap;rounded=0;fontSize=10;fontColor=#FFFFFF;" parent="1" vertex="1">
                    <mxGeometry x="638.75" y="-91.25" width="91.25" height="30" as="geometry"/>
                </mxCell>
                <mxCell id="31" value="" style="rounded=0;whiteSpace=wrap;html=1;rotation=90;fillColor=#f5f5f5;fontColor=#333333;strokeColor=#666666;" parent="1" vertex="1">
                    <mxGeometry x="960.63" y="40.629999999999995" width="495" height="257.5" as="geometry"/>
                </mxCell>
                <mxCell id="32" value="" style="rounded=1;whiteSpace=wrap;html=1;fontSize=8;fontColor=#ffffff;fillColor=#6a00ff;strokeColor=#3700CC;" parent="1" vertex="1">
                    <mxGeometry x="1285.63" y="370.63" width="40" height="40" as="geometry"/>
                </mxCell>
                <mxCell id="33" value="" style="shape=cross;whiteSpace=wrap;html=1;fontSize=8;fontColor=#000000;size=0.24814588758680808;" parent="1" vertex="1">
                    <mxGeometry x="1290.63" y="375.63" width="30" height="30" as="geometry"/>
                </mxCell>
                <mxCell id="34" value="Note Title" style="shape=ext;double=1;rounded=1;whiteSpace=wrap;html=1;fontSize=8;fontColor=#ffffff;fillColor=#6a00ff;strokeColor=#3700CC;" parent="1" vertex="1">
                    <mxGeometry x="1087.5100000000002" y="20.629999999999995" width="240" height="40" as="geometry"/>
                </mxCell>
                <mxCell id="35" value="Note Title" style="shape=ext;double=1;rounded=1;whiteSpace=wrap;html=1;fontSize=8;fontColor=#ffffff;fillColor=#6a00ff;strokeColor=#3700CC;" parent="1" vertex="1">
                    <mxGeometry x="1088.7600000000002" y="70.63" width="240" height="40" as="geometry"/>
                </mxCell>
                <mxCell id="40" value="" style="rounded=0;whiteSpace=wrap;html=1;fontSize=8;fontColor=#ffffff;fillColor=#6a00ff;strokeColor=#3700CC;" parent="1" vertex="1">
                    <mxGeometry x="1079.38" y="-79.37" width="260" height="30" as="geometry"/>
                </mxCell>
                <mxCell id="36" value="" style="shape=flexArrow;endArrow=classic;html=1;fontSize=8;fontColor=#000000;width=6.666666666666666;endSize=5.166666666666667;strokeColor=#000000;fillColor=default;" parent="1" edge="1">
                    <mxGeometry width="50" height="50" relative="1" as="geometry">
                        <mxPoint x="1119.3800000000003" y="-64.37" as="sourcePoint"/>
                        <mxPoint x="1079.3800000000003" y="-64.78999999999996" as="targetPoint"/>
                    </mxGeometry>
                </mxCell>
                <mxCell id="37" value="&lt;font style=&quot;font-size: 10px;&quot; color=&quot;#ffffff&quot;&gt;C196 Exam&lt;/font&gt;" style="text;html=1;strokeColor=none;fillColor=none;align=center;verticalAlign=middle;whiteSpace=wrap;rounded=0;fontSize=8;fontColor=#000000;" parent="1" vertex="1">
                    <mxGeometry x="1119.38" y="-79.37" width="60" height="20" as="geometry"/>
                </mxCell>
                <mxCell id="38" value="Add Notification" style="text;html=1;strokeColor=none;fillColor=none;align=center;verticalAlign=middle;whiteSpace=wrap;rounded=0;fontSize=10;fontColor=#FFFFFF;" parent="1" vertex="1">
                    <mxGeometry x="1279.38" y="-79.37" width="60" height="30" as="geometry"/>
                </mxCell>
                <mxCell id="39" value="&lt;font style=&quot;font-size: 8px;&quot;&gt;Start - End&lt;/font&gt;" style="text;html=1;strokeColor=none;fillColor=none;align=center;verticalAlign=middle;whiteSpace=wrap;rounded=0;fontSize=10;fontColor=#FFFFFF;" parent="1" vertex="1">
                    <mxGeometry x="1119.38" y="-70.62" width="60" height="30" as="geometry"/>
                </mxCell>
                <mxCell id="41" value="" style="endArrow=none;html=1;strokeColor=#000000;fontSize=8;fontColor=#FFFFFF;fillColor=default;" parent="1" edge="1">
                    <mxGeometry width="50" height="50" relative="1" as="geometry">
                        <mxPoint x="1080.63" y="-29.370000000000005" as="sourcePoint"/>
                        <mxPoint x="1330.63" y="-29.370000000000005" as="targetPoint"/>
                    </mxGeometry>
                </mxCell>
                <mxCell id="42" value="Notes" style="text;html=1;align=center;verticalAlign=middle;whiteSpace=wrap;rounded=0;fontSize=8;fontColor=#000000;" parent="1" vertex="1">
                    <mxGeometry x="1110.63" y="-49.370000000000005" width="60" height="30" as="geometry"/>
                </mxCell>
                <mxCell id="43" value="Assessments" style="text;html=1;strokeColor=none;fillColor=none;align=center;verticalAlign=middle;whiteSpace=wrap;rounded=0;fontSize=8;fontColor=#000000;" parent="1" vertex="1">
                    <mxGeometry x="1250.63" y="-49.370000000000005" width="60" height="30" as="geometry"/>
                </mxCell>
                <mxCell id="45" value="Course Assessments" style="text;html=1;align=center;verticalAlign=middle;resizable=0;points=[];autosize=1;strokeColor=none;fillColor=#000000;fontColor=#FFFFFF;" parent="1" vertex="1">
                    <mxGeometry x="1579.38" y="-135" width="140" height="30" as="geometry"/>
                </mxCell>
                <mxCell id="46" value="Instructor Name" style="text;html=1;strokeColor=none;fillColor=none;align=center;verticalAlign=middle;whiteSpace=wrap;rounded=0;fontSize=8;fontColor=#000000;" parent="1" vertex="1">
                    <mxGeometry x="1170.63" y="-35.620000000000005" width="81.25" height="30" as="geometry"/>
                </mxCell>
                <mxCell id="47" value="Instructor Email" style="text;html=1;strokeColor=none;fillColor=none;align=center;verticalAlign=middle;whiteSpace=wrap;rounded=0;fontSize=8;fontColor=#000000;" parent="1" vertex="1">
                    <mxGeometry x="1170.63" y="-19.370000000000005" width="80" height="20" as="geometry"/>
                </mxCell>
                <mxCell id="48" value="Instructor Phone" style="text;html=1;strokeColor=none;fillColor=none;align=center;verticalAlign=middle;whiteSpace=wrap;rounded=0;fontSize=8;fontColor=#000000;" parent="1" vertex="1">
                    <mxGeometry x="1171.88" y="-4.3700000000000045" width="80" height="15" as="geometry"/>
                </mxCell>
                <mxCell id="49" value="" style="rounded=0;whiteSpace=wrap;html=1;rotation=90;fillColor=#f5f5f5;fontColor=#333333;strokeColor=#666666;" parent="1" vertex="1">
                    <mxGeometry x="1455.63" y="20" width="495" height="257.5" as="geometry"/>
                </mxCell>
                <mxCell id="50" value="" style="rounded=1;whiteSpace=wrap;html=1;fontSize=8;fontColor=#ffffff;fillColor=#6a00ff;strokeColor=#3700CC;" parent="1" vertex="1">
                    <mxGeometry x="1780.63" y="350" width="40" height="40" as="geometry"/>
                </mxCell>
                <mxCell id="51" value="" style="shape=cross;whiteSpace=wrap;html=1;fontSize=8;fontColor=#000000;size=0.24814588758680808;" parent="1" vertex="1">
                    <mxGeometry x="1785.63" y="355" width="30" height="30" as="geometry"/>
                </mxCell>
                <mxCell id="52" value="Assessment Title" style="shape=ext;double=1;rounded=1;whiteSpace=wrap;html=1;fontSize=8;fontColor=#ffffff;fillColor=#6a00ff;strokeColor=#3700CC;" parent="1" vertex="1">
                    <mxGeometry x="1583.13" y="-37.5" width="240" height="40" as="geometry"/>
                </mxCell>
                <mxCell id="53" value="Assessment Title" style="shape=ext;double=1;rounded=1;whiteSpace=wrap;html=1;fontSize=8;fontColor=#ffffff;fillColor=#6a00ff;strokeColor=#3700CC;" parent="1" vertex="1">
                    <mxGeometry x="1584.38" y="18.75" width="240" height="40" as="geometry"/>
                </mxCell>
                <mxCell id="54" value="" style="rounded=0;whiteSpace=wrap;html=1;fontSize=8;fontColor=#ffffff;fillColor=#6a00ff;strokeColor=#3700CC;" parent="1" vertex="1">
                    <mxGeometry x="1574.38" y="-100" width="260" height="30" as="geometry"/>
                </mxCell>
                <mxCell id="55" value="" style="shape=flexArrow;endArrow=classic;html=1;fontSize=8;fontColor=#000000;width=6.666666666666666;endSize=5.166666666666667;strokeColor=#000000;fillColor=default;" parent="1" edge="1">
                    <mxGeometry width="50" height="50" relative="1" as="geometry">
                        <mxPoint x="1614.38" y="-85" as="sourcePoint"/>
                        <mxPoint x="1574.38" y="-85.41999999999996" as="targetPoint"/>
                    </mxGeometry>
                </mxCell>
                <mxCell id="56" value="&lt;font style=&quot;font-size: 10px;&quot; color=&quot;#ffffff&quot;&gt;C196 Exam&lt;/font&gt;" style="text;html=1;strokeColor=none;fillColor=none;align=center;verticalAlign=middle;whiteSpace=wrap;rounded=0;fontSize=8;fontColor=#000000;" parent="1" vertex="1">
                    <mxGeometry x="1614.38" y="-100" width="60" height="20" as="geometry"/>
                </mxCell>
                <mxCell id="57" value="Add Notification" style="text;html=1;strokeColor=none;fillColor=none;align=center;verticalAlign=middle;whiteSpace=wrap;rounded=0;fontSize=10;fontColor=#FFFFFF;" parent="1" vertex="1">
                    <mxGeometry x="1774.38" y="-100" width="60" height="30" as="geometry"/>
                </mxCell>
                <mxCell id="58" value="&lt;font style=&quot;font-size: 8px;&quot;&gt;Start - End&lt;/font&gt;" style="text;html=1;strokeColor=none;fillColor=none;align=center;verticalAlign=middle;whiteSpace=wrap;rounded=0;fontSize=10;fontColor=#FFFFFF;" parent="1" vertex="1">
                    <mxGeometry x="1614.38" y="-91.25" width="60" height="30" as="geometry"/>
                </mxCell>
                <mxCell id="59" value="" style="endArrow=none;html=1;strokeColor=#000000;fontSize=8;fontColor=#FFFFFF;fillColor=default;" parent="1" edge="1">
                    <mxGeometry width="50" height="50" relative="1" as="geometry">
                        <mxPoint x="1575.63" y="-50" as="sourcePoint"/>
                        <mxPoint x="1825.63" y="-50" as="targetPoint"/>
                    </mxGeometry>
                </mxCell>
                <mxCell id="60" value="Notes" style="text;html=1;align=center;verticalAlign=middle;whiteSpace=wrap;rounded=0;fontSize=8;fontColor=#000000;" parent="1" vertex="1">
                    <mxGeometry x="1605.63" y="-70" width="60" height="30" as="geometry"/>
                </mxCell>
                <mxCell id="61" value="Assessments" style="text;html=1;strokeColor=none;fillColor=none;align=center;verticalAlign=middle;whiteSpace=wrap;rounded=0;fontSize=8;fontColor=#000000;" parent="1" vertex="1">
                    <mxGeometry x="1745.63" y="-70" width="60" height="30" as="geometry"/>
                </mxCell>
                <mxCell id="63" value="Course Details &amp;amp; Notes" style="text;html=1;align=center;verticalAlign=middle;resizable=0;points=[];autosize=1;strokeColor=none;fillColor=#000000;fontColor=#FFFFFF;" parent="1" vertex="1">
                    <mxGeometry x="1079.38" y="-114.37" width="150" height="30" as="geometry"/>
                </mxCell>
                <mxCell id="64" value="" style="rounded=0;whiteSpace=wrap;html=1;rotation=90;fillColor=#f5f5f5;fontColor=#333333;strokeColor=#666666;" parent="1" vertex="1">
                    <mxGeometry x="10" y="715" width="495" height="257.5" as="geometry"/>
                </mxCell>
                <mxCell id="65" value="Term Detail/Modify View" style="text;html=1;align=center;verticalAlign=middle;resizable=0;points=[];autosize=1;strokeColor=none;fillColor=#000000;fontColor=#FFFFFF;" parent="1" vertex="1">
                    <mxGeometry x="105" y="561.25" width="150" height="30" as="geometry"/>
                </mxCell>
                <mxCell id="66" value="" style="rounded=1;whiteSpace=wrap;html=1;fontSize=8;fontColor=#ffffff;fillColor=#6a00ff;strokeColor=#3700CC;" parent="1" vertex="1">
                    <mxGeometry x="340" y="1046.25" width="40" height="40" as="geometry"/>
                </mxCell>
                <mxCell id="67" value="" style="shape=cross;whiteSpace=wrap;html=1;fontSize=8;fontColor=#000000;size=0.24814588758680808;" parent="1" vertex="1">
                    <mxGeometry x="345" y="1051.25" width="30" height="30" as="geometry"/>
                </mxCell>
                <mxCell id="68" value="Term Name" style="shape=ext;double=1;rounded=1;whiteSpace=wrap;html=1;fontSize=8;fontColor=#ffffff;fillColor=#6a00ff;strokeColor=#3700CC;" parent="1" vertex="1">
                    <mxGeometry x="137.5" y="631.25" width="240" height="40" as="geometry"/>
                </mxCell>
                <mxCell id="69" value="Term Name" style="shape=ext;double=1;rounded=1;whiteSpace=wrap;html=1;fontSize=8;fontColor=#ffffff;fillColor=#6a00ff;strokeColor=#3700CC;" parent="1" vertex="1">
                    <mxGeometry x="137.5" y="681.25" width="240" height="40" as="geometry"/>
                </mxCell>
                <mxCell id="70" value="" style="rounded=0;whiteSpace=wrap;html=1;fontSize=8;fontColor=#ffffff;fillColor=#6a00ff;strokeColor=#3700CC;" parent="1" vertex="1">
                    <mxGeometry x="127.5" y="596.25" width="260" height="30" as="geometry"/>
                </mxCell>
                <mxCell id="71" value="" style="shape=flexArrow;endArrow=classic;html=1;fontSize=8;fontColor=#000000;width=6.666666666666666;endSize=5.166666666666667;strokeColor=#000000;fillColor=default;" parent="1" edge="1">
                    <mxGeometry width="50" height="50" relative="1" as="geometry">
                        <mxPoint x="170" y="611.25" as="sourcePoint"/>
                        <mxPoint x="130" y="610.8299999999999" as="targetPoint"/>
                    </mxGeometry>
                </mxCell>
                <mxCell id="72" value="&lt;font style=&quot;font-size: 10px;&quot; color=&quot;#ffffff&quot;&gt;C196 Exam&lt;/font&gt;" style="text;html=1;strokeColor=none;fillColor=none;align=center;verticalAlign=middle;whiteSpace=wrap;rounded=0;fontSize=8;fontColor=#000000;" parent="1" vertex="1">
                    <mxGeometry x="170" y="596.25" width="60" height="30" as="geometry"/>
                </mxCell>
                <mxCell id="73" value="Add Notification" style="text;html=1;strokeColor=none;fillColor=none;align=center;verticalAlign=middle;whiteSpace=wrap;rounded=0;fontSize=10;fontColor=#FFFFFF;" parent="1" vertex="1">
                    <mxGeometry x="330" y="596.25" width="60" height="30" as="geometry"/>
                </mxCell>
                <mxCell id="74" value="" style="rounded=0;whiteSpace=wrap;html=1;fillColor=#f5f5f5;fontColor=#333333;strokeColor=#666666;" parent="1" vertex="1">
                    <mxGeometry x="152.5" y="652.5" width="210" height="320" as="geometry"/>
                </mxCell>
                <mxCell id="75" value="T" style="shape=partialRectangle;whiteSpace=wrap;html=1;left=0;right=0;fillColor=none;strokeColor=#000000;" parent="1" vertex="1">
                    <mxGeometry x="197.5" y="721.25" width="120" height="30" as="geometry"/>
                </mxCell>
                <mxCell id="76" value="&lt;font style=&quot;font-size: 12px;&quot;&gt;Modify Term&lt;/font&gt;" style="text;html=1;fontSize=24;fontStyle=1;verticalAlign=middle;align=center;fontColor=#100f0f;" parent="1" vertex="1">
                    <mxGeometry x="205" y="660.25" width="100" height="11" as="geometry"/>
                </mxCell>
                <mxCell id="77" value="" style="shape=partialRectangle;whiteSpace=wrap;html=1;left=0;right=0;fillColor=none;strokeColor=#000000;" parent="1" vertex="1">
                    <mxGeometry x="197.5" y="771.25" width="120" height="30" as="geometry"/>
                </mxCell>
                <mxCell id="78" value="" style="shape=partialRectangle;whiteSpace=wrap;html=1;left=0;right=0;fillColor=none;strokeColor=#000000;" parent="1" vertex="1">
                    <mxGeometry x="195" y="811.25" width="120" height="30" as="geometry"/>
                </mxCell>
                <mxCell id="79" value="Term Name" style="text;html=1;strokeColor=none;fillColor=none;align=center;verticalAlign=middle;whiteSpace=wrap;rounded=0;fontSize=12;fontColor=#100f0f;" parent="1" vertex="1">
                    <mxGeometry x="225" y="721.25" width="75" height="30" as="geometry"/>
                </mxCell>
                <mxCell id="80" value="Term Start Date" style="text;html=1;strokeColor=none;fillColor=none;align=center;verticalAlign=middle;whiteSpace=wrap;rounded=0;fontSize=12;fontColor=#100f0f;" parent="1" vertex="1">
                    <mxGeometry x="220" y="771.25" width="90" height="30" as="geometry"/>
                </mxCell>
                <mxCell id="81" value="Term End Date" style="text;html=1;strokeColor=none;fillColor=none;align=center;verticalAlign=middle;whiteSpace=wrap;rounded=0;fontSize=12;fontColor=#100f0f;" parent="1" vertex="1">
                    <mxGeometry x="220" y="811.25" width="90" height="30" as="geometry"/>
                </mxCell>
                <mxCell id="82" value="" style="rounded=0;whiteSpace=wrap;html=1;rotation=90;fillColor=#f5f5f5;fontColor=#333333;strokeColor=#666666;" parent="1" vertex="1">
                    <mxGeometry x="690" y="697.5" width="495" height="257.5" as="geometry"/>
                </mxCell>
                <mxCell id="83" value="Course Detail/Modify" style="text;html=1;align=center;verticalAlign=middle;resizable=0;points=[];autosize=1;strokeColor=none;fillColor=#000000;fontColor=#FFFFFF;" parent="1" vertex="1">
                    <mxGeometry x="780" y="542.5" width="130" height="30" as="geometry"/>
                </mxCell>
                <mxCell id="84" value="" style="rounded=1;whiteSpace=wrap;html=1;fontSize=8;fontColor=#ffffff;fillColor=#6a00ff;strokeColor=#3700CC;" parent="1" vertex="1">
                    <mxGeometry x="1015" y="1027.5" width="40" height="40" as="geometry"/>
                </mxCell>
                <mxCell id="85" value="" style="shape=cross;whiteSpace=wrap;html=1;fontSize=8;fontColor=#000000;size=0.24814588758680808;" parent="1" vertex="1">
                    <mxGeometry x="1020" y="1032.5" width="30" height="30" as="geometry"/>
                </mxCell>
                <mxCell id="86" value="Course Name" style="shape=ext;double=1;rounded=1;whiteSpace=wrap;html=1;fontSize=8;fontColor=#ffffff;fillColor=#6a00ff;strokeColor=#3700CC;" parent="1" vertex="1">
                    <mxGeometry x="817.5" y="616.25" width="240" height="40" as="geometry"/>
                </mxCell>
                <mxCell id="87" value="Course Name" style="shape=ext;double=1;rounded=1;whiteSpace=wrap;html=1;fontSize=8;fontColor=#ffffff;fillColor=#6a00ff;strokeColor=#3700CC;" parent="1" vertex="1">
                    <mxGeometry x="817.5" y="667.5" width="240" height="40" as="geometry"/>
                </mxCell>
                <mxCell id="88" value="" style="rounded=0;whiteSpace=wrap;html=1;fontSize=8;fontColor=#ffffff;fillColor=#6a00ff;strokeColor=#3700CC;" parent="1" vertex="1">
                    <mxGeometry x="806.25" y="577.5" width="260" height="30" as="geometry"/>
                </mxCell>
                <mxCell id="89" value="" style="shape=flexArrow;endArrow=classic;html=1;fontSize=8;fontColor=#000000;width=6.666666666666666;endSize=5.166666666666667;strokeColor=#000000;fillColor=default;" parent="1" edge="1">
                    <mxGeometry width="50" height="50" relative="1" as="geometry">
                        <mxPoint x="848.75" y="592.5" as="sourcePoint"/>
                        <mxPoint x="808.75" y="592.0799999999997" as="targetPoint"/>
                    </mxGeometry>
                </mxCell>
                <mxCell id="90" value="&lt;font style=&quot;font-size: 10px;&quot; color=&quot;#ffffff&quot;&gt;C196 Exam&lt;/font&gt;" style="text;html=1;strokeColor=none;fillColor=none;align=center;verticalAlign=middle;whiteSpace=wrap;rounded=0;fontSize=8;fontColor=#000000;" parent="1" vertex="1">
                    <mxGeometry x="848.75" y="577.5" width="60" height="20" as="geometry"/>
                </mxCell>
                <mxCell id="91" value="Add Notification" style="text;html=1;strokeColor=none;fillColor=none;align=center;verticalAlign=middle;whiteSpace=wrap;rounded=0;fontSize=10;fontColor=#FFFFFF;" parent="1" vertex="1">
                    <mxGeometry x="1008.75" y="577.5" width="60" height="30" as="geometry"/>
                </mxCell>
                <mxCell id="92" value="&lt;font style=&quot;font-size: 8px;&quot;&gt;Term Start - End&lt;/font&gt;" style="text;html=1;strokeColor=none;fillColor=none;align=center;verticalAlign=middle;whiteSpace=wrap;rounded=0;fontSize=10;fontColor=#FFFFFF;" parent="1" vertex="1">
                    <mxGeometry x="848.75" y="586.25" width="91.25" height="30" as="geometry"/>
                </mxCell>
                <mxCell id="94" value="Cancel" style="text;html=1;strokeColor=none;fillColor=none;align=center;verticalAlign=middle;whiteSpace=wrap;rounded=0;fontSize=12;fontColor=#100f0f;" parent="1" vertex="1">
                    <mxGeometry x="250" y="952.5" width="50" height="20" as="geometry"/>
                </mxCell>
                <mxCell id="95" value="Save" style="text;html=1;strokeColor=none;fillColor=none;align=center;verticalAlign=middle;whiteSpace=wrap;rounded=0;fontSize=12;fontColor=#100f0f;" parent="1" vertex="1">
                    <mxGeometry x="305" y="952.5" width="50" height="20" as="geometry"/>
                </mxCell>
                <mxCell id="98" value="&lt;font style=&quot;font-size: 12px;&quot;&gt;Modify Term&lt;/font&gt;" style="text;html=1;fontSize=24;fontStyle=1;verticalAlign=middle;align=center;fontColor=#100f0f;" parent="1" vertex="1">
                    <mxGeometry x="205" y="660.25" width="100" height="11" as="geometry"/>
                </mxCell>
                <mxCell id="99" value="T" style="shape=partialRectangle;whiteSpace=wrap;html=1;left=0;right=0;fillColor=none;strokeColor=#000000;" parent="1" vertex="1">
                    <mxGeometry x="197.5" y="721.25" width="120" height="30" as="geometry"/>
                </mxCell>
                <mxCell id="100" value="" style="rounded=0;whiteSpace=wrap;html=1;fillColor=#f5f5f5;fontColor=#333333;strokeColor=#666666;" parent="1" vertex="1">
                    <mxGeometry x="832.5" y="612.5" width="210" height="450" as="geometry"/>
                </mxCell>
                <mxCell id="101" value="T" style="shape=partialRectangle;whiteSpace=wrap;html=1;left=0;right=0;fillColor=none;strokeColor=#000000;" parent="1" vertex="1">
                    <mxGeometry x="882.5" y="641.5" width="120" height="30" as="geometry"/>
                </mxCell>
                <mxCell id="102" value="&lt;font style=&quot;font-size: 12px;&quot;&gt;Modify Course&lt;/font&gt;" style="text;html=1;fontSize=24;fontStyle=1;verticalAlign=middle;align=center;fontColor=#100f0f;" parent="1" vertex="1">
                    <mxGeometry x="890" y="616.25" width="100" height="11" as="geometry"/>
                </mxCell>
                <mxCell id="103" value="" style="shape=partialRectangle;whiteSpace=wrap;html=1;left=0;right=0;fillColor=none;strokeColor=#000000;" parent="1" vertex="1">
                    <mxGeometry x="882.5" y="691.5" width="120" height="30" as="geometry"/>
                </mxCell>
                <mxCell id="104" value="" style="shape=partialRectangle;whiteSpace=wrap;html=1;left=0;right=0;fillColor=none;strokeColor=#000000;" parent="1" vertex="1">
                    <mxGeometry x="880" y="731.5" width="120" height="30" as="geometry"/>
                </mxCell>
                <mxCell id="105" value="Course Name" style="text;html=1;strokeColor=none;fillColor=none;align=center;verticalAlign=middle;whiteSpace=wrap;rounded=0;fontSize=12;fontColor=#100f0f;" parent="1" vertex="1">
                    <mxGeometry x="900" y="641.5" width="95" height="30" as="geometry"/>
                </mxCell>
                <mxCell id="106" value="Course Start Date" style="text;html=1;strokeColor=none;fillColor=none;align=center;verticalAlign=middle;whiteSpace=wrap;rounded=0;fontSize=12;fontColor=#100f0f;" parent="1" vertex="1">
                    <mxGeometry x="897.5" y="691.5" width="100" height="30" as="geometry"/>
                </mxCell>
                <mxCell id="107" value="Course End Date" style="text;html=1;strokeColor=none;fillColor=none;align=center;verticalAlign=middle;whiteSpace=wrap;rounded=0;fontSize=12;fontColor=#100f0f;" parent="1" vertex="1">
                    <mxGeometry x="900" y="731.5" width="95" height="30" as="geometry"/>
                </mxCell>
                <mxCell id="108" value="Cancel" style="text;html=1;strokeColor=none;fillColor=none;align=center;verticalAlign=middle;whiteSpace=wrap;rounded=0;fontSize=12;fontColor=#100f0f;" parent="1" vertex="1">
                    <mxGeometry x="950" y="1042.5" width="50" height="20" as="geometry"/>
                </mxCell>
                <mxCell id="109" value="Save" style="text;html=1;strokeColor=none;fillColor=none;align=center;verticalAlign=middle;whiteSpace=wrap;rounded=0;fontSize=12;fontColor=#100f0f;" parent="1" vertex="1">
                    <mxGeometry x="992.5" y="1042.5" width="50" height="20" as="geometry"/>
                </mxCell>
                <mxCell id="113" value="" style="rounded=0;whiteSpace=wrap;html=1;strokeColor=#b85450;fontSize=12;fillColor=#f8cecc;" parent="1" vertex="1">
                    <mxGeometry x="152.5" y="891.25" width="207.5" height="40" as="geometry"/>
                </mxCell>
                <mxCell id="114" value="Delete" style="text;html=1;strokeColor=none;fillColor=none;align=center;verticalAlign=middle;whiteSpace=wrap;rounded=0;fontSize=12;fontColor=#100f0f;" parent="1" vertex="1">
                    <mxGeometry x="228" y="896.25" width="60" height="30" as="geometry"/>
                </mxCell>
                <mxCell id="115" value="T" style="shape=partialRectangle;whiteSpace=wrap;html=1;left=0;right=0;fillColor=none;strokeColor=#000000;" parent="1" vertex="1">
                    <mxGeometry x="880" y="771.5" width="120" height="30" as="geometry"/>
                </mxCell>
                <mxCell id="116" value="" style="shape=partialRectangle;whiteSpace=wrap;html=1;left=0;right=0;fillColor=none;strokeColor=#000000;" parent="1" vertex="1">
                    <mxGeometry x="881.25" y="816.5" width="120" height="30" as="geometry"/>
                </mxCell>
                <mxCell id="117" value="" style="shape=partialRectangle;whiteSpace=wrap;html=1;left=0;right=0;fillColor=none;strokeColor=#000000;" parent="1" vertex="1">
                    <mxGeometry x="877.5" y="851.5" width="120" height="30" as="geometry"/>
                </mxCell>
                <mxCell id="118" value="Course Instructor First Name" style="text;html=1;strokeColor=none;fillColor=none;align=center;verticalAlign=middle;whiteSpace=wrap;rounded=0;fontSize=12;fontColor=#100f0f;" parent="1" vertex="1">
                    <mxGeometry x="892.5" y="771.5" width="97.5" height="30" as="geometry"/>
                </mxCell>
                <mxCell id="119" value="Course Instructor Last Name" style="text;html=1;strokeColor=none;fillColor=none;align=center;verticalAlign=middle;whiteSpace=wrap;rounded=0;fontSize=12;fontColor=#100f0f;" parent="1" vertex="1">
                    <mxGeometry x="895.63" y="816.5" width="98.75" height="30" as="geometry"/>
                </mxCell>
                <mxCell id="120" value="Course Instructor Email" style="text;html=1;strokeColor=none;fillColor=none;align=center;verticalAlign=middle;whiteSpace=wrap;rounded=0;fontSize=12;fontColor=#100f0f;" parent="1" vertex="1">
                    <mxGeometry x="900" y="851.5" width="95" height="30" as="geometry"/>
                </mxCell>
                <mxCell id="122" value="T" style="shape=partialRectangle;whiteSpace=wrap;html=1;left=0;right=0;fillColor=none;strokeColor=#000000;" parent="1" vertex="1">
                    <mxGeometry x="877.5" y="894" width="120" height="30" as="geometry"/>
                </mxCell>
                <mxCell id="123" value="" style="shape=partialRectangle;whiteSpace=wrap;html=1;left=0;right=0;fillColor=none;strokeColor=#000000;" parent="1" vertex="1">
                    <mxGeometry x="881.25" y="936.5" width="120" height="30" as="geometry"/>
                </mxCell>
                <mxCell id="125" value="Course Instructor Phone" style="text;html=1;strokeColor=none;fillColor=none;align=center;verticalAlign=middle;whiteSpace=wrap;rounded=0;fontSize=12;fontColor=#100f0f;" parent="1" vertex="1">
                    <mxGeometry x="890.63" y="894" width="101.25" height="30" as="geometry"/>
                </mxCell>
                <mxCell id="126" value="Course Status Dropdown" style="text;html=1;strokeColor=none;fillColor=none;align=center;verticalAlign=middle;whiteSpace=wrap;rounded=0;fontSize=12;fontColor=#100f0f;" parent="1" vertex="1">
                    <mxGeometry x="895" y="936.5" width="90" height="30" as="geometry"/>
                </mxCell>
                <mxCell id="129" value="" style="rounded=0;whiteSpace=wrap;html=1;strokeColor=#b85450;fontSize=12;fillColor=#f8cecc;" parent="1" vertex="1">
                    <mxGeometry x="832.5" y="972.5" width="207.5" height="40" as="geometry"/>
                </mxCell>
                <mxCell id="130" value="Delete" style="text;html=1;strokeColor=none;fillColor=none;align=center;verticalAlign=middle;whiteSpace=wrap;rounded=0;fontSize=12;fontColor=#100f0f;" parent="1" vertex="1">
                    <mxGeometry x="908" y="977.5" width="60" height="30" as="geometry"/>
                </mxCell>
                <mxCell id="131" value="" style="rounded=0;whiteSpace=wrap;html=1;rotation=90;fillColor=#f5f5f5;fontColor=#333333;strokeColor=#666666;" vertex="1" parent="1">
                    <mxGeometry x="2147.63" y="673.75" width="495" height="257.5" as="geometry"/>
                </mxCell>
                <mxCell id="132" value="Assessment Detail/Modify" style="text;html=1;align=center;verticalAlign=middle;resizable=0;points=[];autosize=1;strokeColor=none;fillColor=#000000;fontColor=#FFFFFF;" vertex="1" parent="1">
                    <mxGeometry x="2238.26" y="516.25" width="160" height="30" as="geometry"/>
                </mxCell>
                <mxCell id="133" value="" style="rounded=1;whiteSpace=wrap;html=1;fontSize=8;fontColor=#ffffff;fillColor=#6a00ff;strokeColor=#3700CC;" vertex="1" parent="1">
                    <mxGeometry x="2472.63" y="1003.75" width="40" height="40" as="geometry"/>
                </mxCell>
                <mxCell id="134" value="" style="shape=cross;whiteSpace=wrap;html=1;fontSize=8;fontColor=#000000;size=0.24814588758680808;" vertex="1" parent="1">
                    <mxGeometry x="2477.63" y="1008.75" width="30" height="30" as="geometry"/>
                </mxCell>
                <mxCell id="135" value="Course Name" style="shape=ext;double=1;rounded=1;whiteSpace=wrap;html=1;fontSize=8;fontColor=#ffffff;fillColor=#6a00ff;strokeColor=#3700CC;" vertex="1" parent="1">
                    <mxGeometry x="2275.13" y="592.5" width="240" height="40" as="geometry"/>
                </mxCell>
                <mxCell id="136" value="Course Name" style="shape=ext;double=1;rounded=1;whiteSpace=wrap;html=1;fontSize=8;fontColor=#ffffff;fillColor=#6a00ff;strokeColor=#3700CC;" vertex="1" parent="1">
                    <mxGeometry x="2275.13" y="643.75" width="240" height="40" as="geometry"/>
                </mxCell>
                <mxCell id="137" value="" style="rounded=0;whiteSpace=wrap;html=1;fontSize=8;fontColor=#ffffff;fillColor=#6a00ff;strokeColor=#3700CC;" vertex="1" parent="1">
                    <mxGeometry x="2261.38" y="557.5" width="260" height="30" as="geometry"/>
                </mxCell>
                <mxCell id="138" value="" style="shape=flexArrow;endArrow=classic;html=1;fontSize=8;fontColor=#000000;width=6.666666666666666;endSize=5.166666666666667;strokeColor=#000000;fillColor=default;" edge="1" parent="1">
                    <mxGeometry width="50" height="50" relative="1" as="geometry">
                        <mxPoint x="2303.8799999999997" y="572.5" as="sourcePoint"/>
                        <mxPoint x="2263.8799999999997" y="572.0799999999999" as="targetPoint"/>
                    </mxGeometry>
                </mxCell>
                <mxCell id="139" value="&lt;font style=&quot;font-size: 10px;&quot; color=&quot;#ffffff&quot;&gt;C196 Exam&lt;/font&gt;" style="text;html=1;strokeColor=none;fillColor=none;align=center;verticalAlign=middle;whiteSpace=wrap;rounded=0;fontSize=8;fontColor=#000000;" vertex="1" parent="1">
                    <mxGeometry x="2303.88" y="557.5" width="60" height="20" as="geometry"/>
                </mxCell>
                <mxCell id="140" value="Add Notification" style="text;html=1;strokeColor=none;fillColor=none;align=center;verticalAlign=middle;whiteSpace=wrap;rounded=0;fontSize=10;fontColor=#FFFFFF;" vertex="1" parent="1">
                    <mxGeometry x="2463.88" y="557.5" width="60" height="30" as="geometry"/>
                </mxCell>
                <mxCell id="141" value="&lt;font style=&quot;font-size: 8px;&quot;&gt;Term Start - End&lt;/font&gt;" style="text;html=1;strokeColor=none;fillColor=none;align=center;verticalAlign=middle;whiteSpace=wrap;rounded=0;fontSize=10;fontColor=#FFFFFF;" vertex="1" parent="1">
                    <mxGeometry x="2303.88" y="566.25" width="91.25" height="30" as="geometry"/>
                </mxCell>
                <mxCell id="142" value="" style="rounded=0;whiteSpace=wrap;html=1;fillColor=#f5f5f5;fontColor=#333333;strokeColor=#666666;" vertex="1" parent="1">
                    <mxGeometry x="2287.63" y="646.25" width="210" height="250" as="geometry"/>
                </mxCell>
                <mxCell id="143" value="T" style="shape=partialRectangle;whiteSpace=wrap;html=1;left=0;right=0;fillColor=none;strokeColor=#000000;" vertex="1" parent="1">
                    <mxGeometry x="2335.76" y="682" width="120" height="30" as="geometry"/>
                </mxCell>
                <mxCell id="144" value="&lt;font style=&quot;font-size: 12px;&quot;&gt;Modify Assessment&lt;/font&gt;" style="text;html=1;fontSize=24;fontStyle=1;verticalAlign=middle;align=center;fontColor=#100f0f;" vertex="1" parent="1">
                    <mxGeometry x="2343.26" y="656.75" width="100" height="11" as="geometry"/>
                </mxCell>
                <mxCell id="145" value="" style="shape=partialRectangle;whiteSpace=wrap;html=1;left=0;right=0;fillColor=none;strokeColor=#000000;" vertex="1" parent="1">
                    <mxGeometry x="2336.38" y="717.75" width="120" height="30" as="geometry"/>
                </mxCell>
                <mxCell id="146" value="" style="shape=partialRectangle;whiteSpace=wrap;html=1;left=0;right=0;fillColor=none;strokeColor=#000000;" vertex="1" parent="1">
                    <mxGeometry x="2333.88" y="757.75" width="120" height="30" as="geometry"/>
                </mxCell>
                <mxCell id="147" value="Assessment Name" style="text;html=1;strokeColor=none;fillColor=none;align=center;verticalAlign=middle;whiteSpace=wrap;rounded=0;fontSize=12;fontColor=#100f0f;" vertex="1" parent="1">
                    <mxGeometry x="2342.01" y="682" width="120" height="30" as="geometry"/>
                </mxCell>
                <mxCell id="148" value="Assessment &lt;br&gt;Start Date" style="text;html=1;strokeColor=none;fillColor=none;align=center;verticalAlign=middle;whiteSpace=wrap;rounded=0;fontSize=12;fontColor=#100f0f;" vertex="1" parent="1">
                    <mxGeometry x="2351.38" y="717.75" width="100" height="30" as="geometry"/>
                </mxCell>
                <mxCell id="149" value="Assessment End Date" style="text;html=1;strokeColor=none;fillColor=none;align=center;verticalAlign=middle;whiteSpace=wrap;rounded=0;fontSize=12;fontColor=#100f0f;" vertex="1" parent="1">
                    <mxGeometry x="2353.88" y="757.75" width="95" height="30" as="geometry"/>
                </mxCell>
                <mxCell id="150" value="Cancel" style="text;html=1;strokeColor=none;fillColor=none;align=center;verticalAlign=middle;whiteSpace=wrap;rounded=0;fontSize=12;fontColor=#100f0f;" vertex="1" parent="1">
                    <mxGeometry x="2398.26" y="872.75" width="50" height="20" as="geometry"/>
                </mxCell>
                <mxCell id="164" style="edgeStyle=none;html=1;exitX=0.5;exitY=0;exitDx=0;exitDy=0;" edge="1" parent="1" source="151">
                    <mxGeometry relative="1" as="geometry">
                        <mxPoint x="2489.138620689655" y="897.75" as="targetPoint"/>
                    </mxGeometry>
                </mxCell>
                <mxCell id="151" value="Save" style="text;html=1;strokeColor=none;fillColor=none;align=center;verticalAlign=middle;whiteSpace=wrap;rounded=0;fontSize=12;fontColor=#100f0f;" vertex="1" parent="1">
                    <mxGeometry x="2450.13" y="872.75" width="50" height="20" as="geometry"/>
                </mxCell>
                <mxCell id="162" value="" style="rounded=0;whiteSpace=wrap;html=1;strokeColor=#b85450;fontSize=12;fillColor=#f8cecc;" vertex="1" parent="1">
                    <mxGeometry x="2292.63" y="827.75" width="207.5" height="40" as="geometry"/>
                </mxCell>
                <mxCell id="163" value="Delete" style="text;html=1;strokeColor=none;fillColor=none;align=center;verticalAlign=middle;whiteSpace=wrap;rounded=0;fontSize=12;fontColor=#100f0f;" vertex="1" parent="1">
                    <mxGeometry x="2368.13" y="832.75" width="60" height="30" as="geometry"/>
                </mxCell>
                <mxCell id="165" value="" style="rounded=0;whiteSpace=wrap;html=1;rotation=90;fillColor=#f5f5f5;fontColor=#333333;strokeColor=#666666;" vertex="1" parent="1">
                    <mxGeometry x="1562.5200000000002" y="705" width="495" height="257.5" as="geometry"/>
                </mxCell>
                <mxCell id="166" value="" style="rounded=1;whiteSpace=wrap;html=1;fontSize=8;fontColor=#ffffff;fillColor=#6a00ff;strokeColor=#3700CC;" vertex="1" parent="1">
                    <mxGeometry x="1887.5200000000002" y="1035" width="40" height="40" as="geometry"/>
                </mxCell>
                <mxCell id="167" value="" style="shape=cross;whiteSpace=wrap;html=1;fontSize=8;fontColor=#000000;size=0.24814588758680808;" vertex="1" parent="1">
                    <mxGeometry x="1892.5200000000002" y="1040" width="30" height="30" as="geometry"/>
                </mxCell>
                <mxCell id="168" value="Note Title" style="shape=ext;double=1;rounded=1;whiteSpace=wrap;html=1;fontSize=8;fontColor=#ffffff;fillColor=#6a00ff;strokeColor=#3700CC;" vertex="1" parent="1">
                    <mxGeometry x="1689.4000000000003" y="685" width="240" height="40" as="geometry"/>
                </mxCell>
                <mxCell id="169" value="Note Title" style="shape=ext;double=1;rounded=1;whiteSpace=wrap;html=1;fontSize=8;fontColor=#ffffff;fillColor=#6a00ff;strokeColor=#3700CC;" vertex="1" parent="1">
                    <mxGeometry x="1690.6500000000003" y="735" width="240" height="40" as="geometry"/>
                </mxCell>
                <mxCell id="170" value="" style="rounded=0;whiteSpace=wrap;html=1;fontSize=8;fontColor=#ffffff;fillColor=#6a00ff;strokeColor=#3700CC;" vertex="1" parent="1">
                    <mxGeometry x="1681.2700000000002" y="585" width="260" height="30" as="geometry"/>
                </mxCell>
                <mxCell id="171" value="" style="shape=flexArrow;endArrow=classic;html=1;fontSize=8;fontColor=#000000;width=6.666666666666666;endSize=5.166666666666667;strokeColor=#000000;fillColor=default;" edge="1" parent="1">
                    <mxGeometry width="50" height="50" relative="1" as="geometry">
                        <mxPoint x="1721.2700000000002" y="600" as="sourcePoint"/>
                        <mxPoint x="1681.2700000000002" y="599.5799999999999" as="targetPoint"/>
                    </mxGeometry>
                </mxCell>
                <mxCell id="172" value="&lt;font style=&quot;font-size: 10px;&quot; color=&quot;#ffffff&quot;&gt;C196 Exam&lt;/font&gt;" style="text;html=1;strokeColor=none;fillColor=none;align=center;verticalAlign=middle;whiteSpace=wrap;rounded=0;fontSize=8;fontColor=#000000;" vertex="1" parent="1">
                    <mxGeometry x="1721.2700000000002" y="585" width="60" height="20" as="geometry"/>
                </mxCell>
                <mxCell id="173" value="Add Notification" style="text;html=1;strokeColor=none;fillColor=none;align=center;verticalAlign=middle;whiteSpace=wrap;rounded=0;fontSize=10;fontColor=#FFFFFF;" vertex="1" parent="1">
                    <mxGeometry x="1881.2700000000002" y="585" width="60" height="30" as="geometry"/>
                </mxCell>
                <mxCell id="174" value="&lt;font style=&quot;font-size: 8px;&quot;&gt;Start - End&lt;/font&gt;" style="text;html=1;strokeColor=none;fillColor=none;align=center;verticalAlign=middle;whiteSpace=wrap;rounded=0;fontSize=10;fontColor=#FFFFFF;" vertex="1" parent="1">
                    <mxGeometry x="1721.2700000000002" y="593.75" width="60" height="30" as="geometry"/>
                </mxCell>
                <mxCell id="175" value="" style="endArrow=none;html=1;strokeColor=#000000;fontSize=8;fontColor=#FFFFFF;fillColor=default;" edge="1" parent="1">
                    <mxGeometry width="50" height="50" relative="1" as="geometry">
                        <mxPoint x="1682.5200000000002" y="635" as="sourcePoint"/>
                        <mxPoint x="1932.5200000000002" y="635" as="targetPoint"/>
                    </mxGeometry>
                </mxCell>
                <mxCell id="176" value="Notes" style="text;html=1;align=center;verticalAlign=middle;whiteSpace=wrap;rounded=0;fontSize=8;fontColor=#000000;" vertex="1" parent="1">
                    <mxGeometry x="1712.5200000000002" y="615" width="60" height="30" as="geometry"/>
                </mxCell>
                <mxCell id="177" value="Assessments" style="text;html=1;strokeColor=none;fillColor=none;align=center;verticalAlign=middle;whiteSpace=wrap;rounded=0;fontSize=8;fontColor=#000000;" vertex="1" parent="1">
                    <mxGeometry x="1852.5200000000002" y="615" width="60" height="30" as="geometry"/>
                </mxCell>
                <mxCell id="178" value="Instructor Name" style="text;html=1;strokeColor=none;fillColor=none;align=center;verticalAlign=middle;whiteSpace=wrap;rounded=0;fontSize=8;fontColor=#000000;" vertex="1" parent="1">
                    <mxGeometry x="1772.5200000000002" y="628.75" width="81.25" height="30" as="geometry"/>
                </mxCell>
                <mxCell id="179" value="Instructor Email" style="text;html=1;strokeColor=none;fillColor=none;align=center;verticalAlign=middle;whiteSpace=wrap;rounded=0;fontSize=8;fontColor=#000000;" vertex="1" parent="1">
                    <mxGeometry x="1772.5200000000002" y="645" width="80" height="20" as="geometry"/>
                </mxCell>
                <mxCell id="180" value="Instructor Phone" style="text;html=1;strokeColor=none;fillColor=none;align=center;verticalAlign=middle;whiteSpace=wrap;rounded=0;fontSize=8;fontColor=#000000;" vertex="1" parent="1">
                    <mxGeometry x="1773.7700000000002" y="660" width="80" height="15" as="geometry"/>
                </mxCell>
                <mxCell id="181" value="Note Share Menu" style="text;html=1;align=center;verticalAlign=middle;resizable=0;points=[];autosize=1;strokeColor=none;fillColor=#000000;fontColor=#FFFFFF;" vertex="1" parent="1">
                    <mxGeometry x="1696.2700000000002" y="550" width="120" height="30" as="geometry"/>
                </mxCell>
                <mxCell id="182" value="" style="rounded=0;whiteSpace=wrap;html=1;fillColor=#f5f5f5;fontColor=#333333;strokeColor=#666666;" vertex="1" parent="1">
                    <mxGeometry x="1687.5200000000002" y="751" width="240" height="329" as="geometry"/>
                </mxCell>
                <mxCell id="183" value="Standard Android Share Menu" style="text;html=1;strokeColor=none;fillColor=none;align=center;verticalAlign=middle;whiteSpace=wrap;rounded=0;fontColor=#000000;" vertex="1" parent="1">
                    <mxGeometry x="1755.5200000000002" y="873.75" width="118.87" height="81.75" as="geometry"/>
                </mxCell>
                <mxCell id="184" value="" style="rounded=0;whiteSpace=wrap;html=1;fillColor=#000000;" vertex="1" parent="1">
                    <mxGeometry x="-620" y="-90.94" width="220" height="99.37" as="geometry"/>
                </mxCell>
                <mxCell id="185" value="This is the Welcome Screen. This is the first screen the user will be greeted with." style="text;html=1;strokeColor=none;fillColor=none;align=center;verticalAlign=middle;whiteSpace=wrap;rounded=0;fontColor=#FFFFFF;" vertex="1" parent="1">
                    <mxGeometry x="-600" y="-81.57" width="170" height="80" as="geometry"/>
                </mxCell>
                <mxCell id="186" value="" style="shape=flexArrow;endArrow=classic;html=1;fontColor=#FFFFFF;entryX=0.519;entryY=1.008;entryDx=0;entryDy=0;entryPerimeter=0;exitX=1;exitY=0.75;exitDx=0;exitDy=0;fillColor=#000000;" edge="1" parent="1" source="7" target="8">
                    <mxGeometry width="50" height="50" relative="1" as="geometry">
                        <mxPoint x="-70" y="143.13" as="sourcePoint"/>
                        <mxPoint x="-20" y="93.13" as="targetPoint"/>
                    </mxGeometry>
                </mxCell>
                <mxCell id="187" value="Text" style="text;html=1;strokeColor=none;fillColor=none;align=center;verticalAlign=middle;whiteSpace=wrap;rounded=0;fontColor=#FFFFFF;" vertex="1" parent="1">
                    <mxGeometry x="140" y="90" width="60" height="30" as="geometry"/>
                </mxCell>
                <mxCell id="188" value="" style="rounded=0;whiteSpace=wrap;html=1;fontColor=#FFFFFF;fillColor=#000000;" vertex="1" parent="1">
                    <mxGeometry x="-110" y="40.63" width="170" height="90" as="geometry"/>
                </mxCell>
                <mxCell id="189" value="If the user taps the &quot;View All Terms&quot; button they will be taken to the term list view." style="text;html=1;strokeColor=none;fillColor=none;align=center;verticalAlign=middle;whiteSpace=wrap;rounded=0;fontColor=#FFFFFF;" vertex="1" parent="1">
                    <mxGeometry x="-85" y="73.13" width="120" height="30" as="geometry"/>
                </mxCell>
                <mxCell id="190" value="" style="rounded=0;whiteSpace=wrap;html=1;rotation=90;fillColor=#f5f5f5;fontColor=#333333;strokeColor=#666666;" vertex="1" parent="1">
                    <mxGeometry x="-390" y="715" width="495" height="257.5" as="geometry"/>
                </mxCell>
                <mxCell id="191" value="Create Term View" style="text;html=1;align=center;verticalAlign=middle;resizable=0;points=[];autosize=1;strokeColor=none;fillColor=#000000;fontColor=#FFFFFF;" vertex="1" parent="1">
                    <mxGeometry x="-280" y="561.25" width="120" height="30" as="geometry"/>
                </mxCell>
                <mxCell id="192" value="" style="rounded=1;whiteSpace=wrap;html=1;fontSize=8;fontColor=#ffffff;fillColor=#6a00ff;strokeColor=#3700CC;" vertex="1" parent="1">
                    <mxGeometry x="-60" y="1046.25" width="40" height="40" as="geometry"/>
                </mxCell>
                <mxCell id="193" value="" style="shape=cross;whiteSpace=wrap;html=1;fontSize=8;fontColor=#000000;size=0.24814588758680808;" vertex="1" parent="1">
                    <mxGeometry x="-55" y="1051.25" width="30" height="30" as="geometry"/>
                </mxCell>
                <mxCell id="194" value="Term Name" style="shape=ext;double=1;rounded=1;whiteSpace=wrap;html=1;fontSize=8;fontColor=#ffffff;fillColor=#6a00ff;strokeColor=#3700CC;" vertex="1" parent="1">
                    <mxGeometry x="-262.5" y="631.25" width="240" height="40" as="geometry"/>
                </mxCell>
                <mxCell id="195" value="Term Name" style="shape=ext;double=1;rounded=1;whiteSpace=wrap;html=1;fontSize=8;fontColor=#ffffff;fillColor=#6a00ff;strokeColor=#3700CC;" vertex="1" parent="1">
                    <mxGeometry x="-262.5" y="681.25" width="240" height="40" as="geometry"/>
                </mxCell>
                <mxCell id="196" value="" style="rounded=0;whiteSpace=wrap;html=1;fontSize=8;fontColor=#ffffff;fillColor=#6a00ff;strokeColor=#3700CC;" vertex="1" parent="1">
                    <mxGeometry x="-272.5" y="596.25" width="260" height="30" as="geometry"/>
                </mxCell>
                <mxCell id="197" value="" style="shape=flexArrow;endArrow=classic;html=1;fontSize=8;fontColor=#000000;width=6.666666666666666;endSize=5.166666666666667;strokeColor=#000000;fillColor=default;" edge="1" parent="1">
                    <mxGeometry width="50" height="50" relative="1" as="geometry">
                        <mxPoint x="-230" y="611.25" as="sourcePoint"/>
                        <mxPoint x="-270" y="610.8299999999999" as="targetPoint"/>
                    </mxGeometry>
                </mxCell>
                <mxCell id="198" value="&lt;font style=&quot;font-size: 10px;&quot; color=&quot;#ffffff&quot;&gt;C196 Exam&lt;/font&gt;" style="text;html=1;strokeColor=none;fillColor=none;align=center;verticalAlign=middle;whiteSpace=wrap;rounded=0;fontSize=8;fontColor=#000000;" vertex="1" parent="1">
                    <mxGeometry x="-230" y="596.25" width="60" height="30" as="geometry"/>
                </mxCell>
                <mxCell id="199" value="Add Notification" style="text;html=1;strokeColor=none;fillColor=none;align=center;verticalAlign=middle;whiteSpace=wrap;rounded=0;fontSize=10;fontColor=#FFFFFF;" vertex="1" parent="1">
                    <mxGeometry x="-70" y="596.25" width="60" height="30" as="geometry"/>
                </mxCell>
                <mxCell id="200" value="" style="rounded=0;whiteSpace=wrap;html=1;fillColor=#f5f5f5;fontColor=#333333;strokeColor=#666666;" vertex="1" parent="1">
                    <mxGeometry x="-247.5" y="652.5" width="210" height="320" as="geometry"/>
                </mxCell>
                <mxCell id="201" value="T" style="shape=partialRectangle;whiteSpace=wrap;html=1;left=0;right=0;fillColor=none;strokeColor=#000000;" vertex="1" parent="1">
                    <mxGeometry x="-202.5" y="721.25" width="120" height="30" as="geometry"/>
                </mxCell>
                <mxCell id="202" value="&lt;font style=&quot;font-size: 12px;&quot;&gt;CreateTerm&lt;/font&gt;" style="text;html=1;fontSize=24;fontStyle=1;verticalAlign=middle;align=center;fontColor=#100f0f;" vertex="1" parent="1">
                    <mxGeometry x="-195" y="660.25" width="100" height="11" as="geometry"/>
                </mxCell>
                <mxCell id="203" value="" style="shape=partialRectangle;whiteSpace=wrap;html=1;left=0;right=0;fillColor=none;strokeColor=#000000;" vertex="1" parent="1">
                    <mxGeometry x="-202.5" y="771.25" width="120" height="30" as="geometry"/>
                </mxCell>
                <mxCell id="204" value="" style="shape=partialRectangle;whiteSpace=wrap;html=1;left=0;right=0;fillColor=none;strokeColor=#000000;" vertex="1" parent="1">
                    <mxGeometry x="-205" y="811.25" width="120" height="30" as="geometry"/>
                </mxCell>
                <mxCell id="205" value="Term Name" style="text;html=1;strokeColor=none;fillColor=none;align=center;verticalAlign=middle;whiteSpace=wrap;rounded=0;fontSize=12;fontColor=#100f0f;" vertex="1" parent="1">
                    <mxGeometry x="-175" y="721.25" width="75" height="30" as="geometry"/>
                </mxCell>
                <mxCell id="206" value="Term Start Date" style="text;html=1;strokeColor=none;fillColor=none;align=center;verticalAlign=middle;whiteSpace=wrap;rounded=0;fontSize=12;fontColor=#100f0f;" vertex="1" parent="1">
                    <mxGeometry x="-180" y="771.25" width="90" height="30" as="geometry"/>
                </mxCell>
                <mxCell id="207" value="Term End Date" style="text;html=1;strokeColor=none;fillColor=none;align=center;verticalAlign=middle;whiteSpace=wrap;rounded=0;fontSize=12;fontColor=#100f0f;" vertex="1" parent="1">
                    <mxGeometry x="-180" y="811.25" width="90" height="30" as="geometry"/>
                </mxCell>
                <mxCell id="208" value="Cancel" style="text;html=1;strokeColor=none;fillColor=none;align=center;verticalAlign=middle;whiteSpace=wrap;rounded=0;fontSize=12;fontColor=#100f0f;" vertex="1" parent="1">
                    <mxGeometry x="-150" y="952.5" width="50" height="20" as="geometry"/>
                </mxCell>
                <mxCell id="209" value="Save" style="text;html=1;strokeColor=none;fillColor=none;align=center;verticalAlign=middle;whiteSpace=wrap;rounded=0;fontSize=12;fontColor=#100f0f;" vertex="1" parent="1">
                    <mxGeometry x="-95" y="952.5" width="50" height="20" as="geometry"/>
                </mxCell>
                <mxCell id="211" value="T" style="shape=partialRectangle;whiteSpace=wrap;html=1;left=0;right=0;fillColor=none;strokeColor=#000000;" vertex="1" parent="1">
                    <mxGeometry x="-202.5" y="721.25" width="120" height="30" as="geometry"/>
                </mxCell>
                <mxCell id="215" value="" style="curved=1;endArrow=classic;html=1;fontColor=#FFFFFF;shape=flexArrow;endWidth=22.5;endSize=6.108333333333333;exitX=0.25;exitY=1;exitDx=0;exitDy=0;fillColor=#000000;strokeColor=default;" edge="1" parent="1" source="10" target="196">
                    <mxGeometry width="50" height="50" relative="1" as="geometry">
                        <mxPoint x="97.5" y="460.63" as="sourcePoint"/>
                        <mxPoint x="147.5" y="410.63" as="targetPoint"/>
                        <Array as="points">
                            <mxPoint x="200" y="400"/>
                            <mxPoint x="70" y="410"/>
                            <mxPoint x="-20" y="440"/>
                        </Array>
                    </mxGeometry>
                </mxCell>
                <mxCell id="216" value="" style="rounded=0;whiteSpace=wrap;html=1;fontColor=#FFFFFF;fillColor=#000000;" vertex="1" parent="1">
                    <mxGeometry x="-45" y="410" width="145" height="60" as="geometry"/>
                </mxCell>
                <mxCell id="217" value="Clicking the plus button will display the create term fragment" style="text;html=1;strokeColor=none;fillColor=none;align=center;verticalAlign=middle;whiteSpace=wrap;rounded=0;fontColor=#FFFFFF;" vertex="1" parent="1">
                    <mxGeometry x="-37.5" y="425" width="130" height="30" as="geometry"/>
                </mxCell>
                <mxCell id="218" value="" style="curved=1;endArrow=classic;html=1;strokeColor=default;fontColor=#FFFFFF;fillColor=#000000;shape=flexArrow;exitX=1;exitY=0.5;exitDx=0;exitDy=0;" edge="1" parent="1" source="13">
                    <mxGeometry width="50" height="50" relative="1" as="geometry">
                        <mxPoint x="140" y="380" as="sourcePoint"/>
                        <mxPoint x="320" y="590" as="targetPoint"/>
                        <Array as="points">
                            <mxPoint x="410"/>
                            <mxPoint x="370" y="370"/>
                        </Array>
                    </mxGeometry>
                </mxCell>
                <mxCell id="219" value="" style="rounded=0;whiteSpace=wrap;html=1;rotation=90;fillColor=#f5f5f5;fontColor=#333333;strokeColor=#666666;" vertex="1" parent="1">
                    <mxGeometry x="263" y="-641.25" width="495" height="257.5" as="geometry"/>
                </mxCell>
                <mxCell id="220" value="" style="rounded=1;whiteSpace=wrap;html=1;fontSize=8;fontColor=#ffffff;fillColor=#6a00ff;strokeColor=#3700CC;" vertex="1" parent="1">
                    <mxGeometry x="593" y="-310" width="40" height="40" as="geometry"/>
                </mxCell>
                <mxCell id="221" value="" style="shape=cross;whiteSpace=wrap;html=1;fontSize=8;fontColor=#000000;size=0.24814588758680808;" vertex="1" parent="1">
                    <mxGeometry x="598" y="-305" width="30" height="30" as="geometry"/>
                </mxCell>
                <mxCell id="222" value="Term Name" style="shape=ext;double=1;rounded=1;whiteSpace=wrap;html=1;fontSize=8;fontColor=#ffffff;fillColor=#6a00ff;strokeColor=#3700CC;" vertex="1" parent="1">
                    <mxGeometry x="390.5" y="-725" width="240" height="40" as="geometry"/>
                </mxCell>
                <mxCell id="223" value="Term Name" style="shape=ext;double=1;rounded=1;whiteSpace=wrap;html=1;fontSize=8;fontColor=#ffffff;fillColor=#6a00ff;strokeColor=#3700CC;" vertex="1" parent="1">
                    <mxGeometry x="390.5" y="-675" width="240" height="40" as="geometry"/>
                </mxCell>
                <mxCell id="224" value="" style="rounded=0;whiteSpace=wrap;html=1;fontSize=8;fontColor=#ffffff;fillColor=#6a00ff;strokeColor=#3700CC;" vertex="1" parent="1">
                    <mxGeometry x="380.5" y="-760" width="260" height="30" as="geometry"/>
                </mxCell>
                <mxCell id="225" value="" style="shape=flexArrow;endArrow=classic;html=1;fontSize=8;fontColor=#000000;width=6.666666666666666;endSize=5.166666666666667;strokeColor=#000000;fillColor=default;" edge="1" parent="1">
                    <mxGeometry width="50" height="50" relative="1" as="geometry">
                        <mxPoint x="423" y="-745" as="sourcePoint"/>
                        <mxPoint x="383" y="-745.4200000000001" as="targetPoint"/>
                    </mxGeometry>
                </mxCell>
                <mxCell id="226" value="&lt;font style=&quot;font-size: 10px;&quot; color=&quot;#ffffff&quot;&gt;C196 Exam&lt;/font&gt;" style="text;html=1;strokeColor=none;fillColor=none;align=center;verticalAlign=middle;whiteSpace=wrap;rounded=0;fontSize=8;fontColor=#000000;" vertex="1" parent="1">
                    <mxGeometry x="423" y="-760" width="60" height="30" as="geometry"/>
                </mxCell>
                <mxCell id="227" value="Add Notification" style="text;html=1;strokeColor=none;fillColor=none;align=center;verticalAlign=middle;whiteSpace=wrap;rounded=0;fontSize=10;fontColor=#FFFFFF;" vertex="1" parent="1">
                    <mxGeometry x="583" y="-760" width="60" height="30" as="geometry"/>
                </mxCell>
                <mxCell id="228" value="" style="rounded=0;whiteSpace=wrap;html=1;fillColor=#f5f5f5;fontColor=#333333;strokeColor=#666666;" vertex="1" parent="1">
                    <mxGeometry x="405.5" y="-703.75" width="210" height="320" as="geometry"/>
                </mxCell>
                <mxCell id="229" value="T" style="shape=partialRectangle;whiteSpace=wrap;html=1;left=0;right=0;fillColor=none;strokeColor=#000000;" vertex="1" parent="1">
                    <mxGeometry x="450.5" y="-635" width="120" height="30" as="geometry"/>
                </mxCell>
                <mxCell id="230" value="&lt;font style=&quot;font-size: 12px;&quot;&gt;Create Notification&lt;/font&gt;" style="text;html=1;fontSize=24;fontStyle=1;verticalAlign=middle;align=center;fontColor=#100f0f;" vertex="1" parent="1">
                    <mxGeometry x="458" y="-696" width="100" height="11" as="geometry"/>
                </mxCell>
                <mxCell id="231" value="" style="shape=partialRectangle;whiteSpace=wrap;html=1;left=0;right=0;fillColor=none;strokeColor=#000000;" vertex="1" parent="1">
                    <mxGeometry x="450.5" y="-585" width="120" height="30" as="geometry"/>
                </mxCell>
                <mxCell id="232" value="" style="shape=partialRectangle;whiteSpace=wrap;html=1;left=0;right=0;fillColor=none;strokeColor=#000000;" vertex="1" parent="1">
                    <mxGeometry x="448" y="-545" width="120" height="30" as="geometry"/>
                </mxCell>
                <mxCell id="233" value="Notification Title" style="text;html=1;strokeColor=none;fillColor=none;align=center;verticalAlign=middle;whiteSpace=wrap;rounded=0;fontSize=12;fontColor=#100f0f;" vertex="1" parent="1">
                    <mxGeometry x="465" y="-635" width="93" height="30" as="geometry"/>
                </mxCell>
                <mxCell id="234" value="Notification message" style="text;html=1;strokeColor=none;fillColor=none;align=center;verticalAlign=middle;whiteSpace=wrap;rounded=0;fontSize=12;fontColor=#100f0f;" vertex="1" parent="1">
                    <mxGeometry x="454" y="-585" width="123" height="30" as="geometry"/>
                </mxCell>
                <mxCell id="235" value="Notification Date" style="text;html=1;strokeColor=none;fillColor=none;align=center;verticalAlign=middle;whiteSpace=wrap;rounded=0;fontSize=12;fontColor=#100f0f;" vertex="1" parent="1">
                    <mxGeometry x="470" y="-545" width="93" height="30" as="geometry"/>
                </mxCell>
                <mxCell id="236" value="Cancel" style="text;html=1;strokeColor=none;fillColor=none;align=center;verticalAlign=middle;whiteSpace=wrap;rounded=0;fontSize=12;fontColor=#100f0f;" vertex="1" parent="1">
                    <mxGeometry x="503" y="-403.75" width="50" height="20" as="geometry"/>
                </mxCell>
                <mxCell id="237" value="Save" style="text;html=1;strokeColor=none;fillColor=none;align=center;verticalAlign=middle;whiteSpace=wrap;rounded=0;fontSize=12;fontColor=#100f0f;" vertex="1" parent="1">
                    <mxGeometry x="558" y="-403.75" width="50" height="20" as="geometry"/>
                </mxCell>
                <mxCell id="239" value="" style="shape=partialRectangle;whiteSpace=wrap;html=1;left=0;right=0;fillColor=none;strokeColor=#000000;" vertex="1" parent="1">
                    <mxGeometry x="450" y="-500" width="120" height="30" as="geometry"/>
                </mxCell>
                <mxCell id="240" value="Notification Time" style="text;html=1;strokeColor=none;fillColor=none;align=center;verticalAlign=middle;whiteSpace=wrap;rounded=0;fontSize=12;fontColor=#100f0f;" vertex="1" parent="1">
                    <mxGeometry x="460" y="-500" width="105" height="30" as="geometry"/>
                </mxCell>
                <mxCell id="241" value="" style="rounded=1;whiteSpace=wrap;html=1;fontColor=#FFFFFF;fillColor=#000000;" vertex="1" parent="1">
                    <mxGeometry x="355" y="40.629999999999995" width="120" height="60" as="geometry"/>
                </mxCell>
                <mxCell id="242" value="" style="rounded=1;whiteSpace=wrap;html=1;fontColor=#FFFFFF;fillColor=#000000;" vertex="1" parent="1">
                    <mxGeometry x="-60" y="-115" width="120" height="60" as="geometry"/>
                </mxCell>
                <mxCell id="243" value="The back button will take you to the previous screen" style="text;html=1;strokeColor=none;fillColor=none;align=center;verticalAlign=middle;whiteSpace=wrap;rounded=0;fontColor=#FFFFFF;" vertex="1" parent="1">
                    <mxGeometry x="-60" y="-97.87" width="110" height="30" as="geometry"/>
                </mxCell>
                <mxCell id="246" value="" style="rounded=1;whiteSpace=wrap;html=1;fontColor=#FFFFFF;fillColor=#000000;" vertex="1" parent="1">
                    <mxGeometry x="435" y="-121.25" width="120" height="60" as="geometry"/>
                </mxCell>
                <mxCell id="247" value="The back button will take you to the previous screen" style="text;html=1;strokeColor=none;fillColor=none;align=center;verticalAlign=middle;whiteSpace=wrap;rounded=0;fontColor=#FFFFFF;" vertex="1" parent="1">
                    <mxGeometry x="435" y="-104.12" width="110" height="30" as="geometry"/>
                </mxCell>
                <mxCell id="248" value="" style="rounded=1;whiteSpace=wrap;html=1;fontColor=#FFFFFF;fillColor=#000000;" vertex="1" parent="1">
                    <mxGeometry x="908" y="-144.37" width="120" height="60" as="geometry"/>
                </mxCell>
                <mxCell id="249" value="The back button will take you to the previous screen" style="text;html=1;strokeColor=none;fillColor=none;align=center;verticalAlign=middle;whiteSpace=wrap;rounded=0;fontColor=#FFFFFF;" vertex="1" parent="1">
                    <mxGeometry x="908" y="-127.24000000000001" width="110" height="30" as="geometry"/>
                </mxCell>
                <mxCell id="251" value="" style="rounded=0;whiteSpace=wrap;html=1;rotation=90;fillColor=#f5f5f5;fontColor=#333333;strokeColor=#666666;" vertex="1" parent="1">
                    <mxGeometry x="347.5" y="717.5" width="495" height="257.5" as="geometry"/>
                </mxCell>
                <mxCell id="252" value="Course Detail/Modify" style="text;html=1;align=center;verticalAlign=middle;resizable=0;points=[];autosize=1;strokeColor=none;fillColor=#000000;fontColor=#FFFFFF;" vertex="1" parent="1">
                    <mxGeometry x="437.5" y="562.5" width="130" height="30" as="geometry"/>
                </mxCell>
                <mxCell id="253" value="" style="rounded=1;whiteSpace=wrap;html=1;fontSize=8;fontColor=#ffffff;fillColor=#6a00ff;strokeColor=#3700CC;" vertex="1" parent="1">
                    <mxGeometry x="672.5" y="1047.5" width="40" height="40" as="geometry"/>
                </mxCell>
                <mxCell id="254" value="" style="shape=cross;whiteSpace=wrap;html=1;fontSize=8;fontColor=#000000;size=0.24814588758680808;" vertex="1" parent="1">
                    <mxGeometry x="677.5" y="1052.5" width="30" height="30" as="geometry"/>
                </mxCell>
                <mxCell id="255" value="Course Name" style="shape=ext;double=1;rounded=1;whiteSpace=wrap;html=1;fontSize=8;fontColor=#ffffff;fillColor=#6a00ff;strokeColor=#3700CC;" vertex="1" parent="1">
                    <mxGeometry x="475" y="636.25" width="240" height="40" as="geometry"/>
                </mxCell>
                <mxCell id="256" value="Course Name" style="shape=ext;double=1;rounded=1;whiteSpace=wrap;html=1;fontSize=8;fontColor=#ffffff;fillColor=#6a00ff;strokeColor=#3700CC;" vertex="1" parent="1">
                    <mxGeometry x="475" y="687.5" width="240" height="40" as="geometry"/>
                </mxCell>
                <mxCell id="257" value="" style="rounded=0;whiteSpace=wrap;html=1;fontSize=8;fontColor=#ffffff;fillColor=#6a00ff;strokeColor=#3700CC;" vertex="1" parent="1">
                    <mxGeometry x="463.75" y="597.5" width="260" height="30" as="geometry"/>
                </mxCell>
                <mxCell id="258" value="" style="shape=flexArrow;endArrow=classic;html=1;fontSize=8;fontColor=#000000;width=6.666666666666666;endSize=5.166666666666667;strokeColor=#000000;fillColor=default;" edge="1" parent="1">
                    <mxGeometry width="50" height="50" relative="1" as="geometry">
                        <mxPoint x="506.25" y="612.5" as="sourcePoint"/>
                        <mxPoint x="466.25" y="612.0799999999999" as="targetPoint"/>
                    </mxGeometry>
                </mxCell>
                <mxCell id="259" value="&lt;font style=&quot;font-size: 10px;&quot; color=&quot;#ffffff&quot;&gt;C196 Exam&lt;/font&gt;" style="text;html=1;strokeColor=none;fillColor=none;align=center;verticalAlign=middle;whiteSpace=wrap;rounded=0;fontSize=8;fontColor=#000000;" vertex="1" parent="1">
                    <mxGeometry x="506.25" y="597.5" width="60" height="20" as="geometry"/>
                </mxCell>
                <mxCell id="260" value="Add Notification" style="text;html=1;strokeColor=none;fillColor=none;align=center;verticalAlign=middle;whiteSpace=wrap;rounded=0;fontSize=10;fontColor=#FFFFFF;" vertex="1" parent="1">
                    <mxGeometry x="666.25" y="597.5" width="60" height="30" as="geometry"/>
                </mxCell>
                <mxCell id="261" value="&lt;font style=&quot;font-size: 8px;&quot;&gt;Term Start - End&lt;/font&gt;" style="text;html=1;strokeColor=none;fillColor=none;align=center;verticalAlign=middle;whiteSpace=wrap;rounded=0;fontSize=10;fontColor=#FFFFFF;" vertex="1" parent="1">
                    <mxGeometry x="506.25" y="606.25" width="91.25" height="30" as="geometry"/>
                </mxCell>
                <mxCell id="262" value="" style="rounded=0;whiteSpace=wrap;html=1;fillColor=#f5f5f5;fontColor=#333333;strokeColor=#666666;" vertex="1" parent="1">
                    <mxGeometry x="490" y="632.5" width="210" height="450" as="geometry"/>
                </mxCell>
                <mxCell id="263" value="T" style="shape=partialRectangle;whiteSpace=wrap;html=1;left=0;right=0;fillColor=none;strokeColor=#000000;" vertex="1" parent="1">
                    <mxGeometry x="540" y="661.5" width="120" height="30" as="geometry"/>
                </mxCell>
                <mxCell id="264" value="&lt;font style=&quot;font-size: 12px;&quot;&gt;Modify Course&lt;/font&gt;" style="text;html=1;fontSize=24;fontStyle=1;verticalAlign=middle;align=center;fontColor=#100f0f;" vertex="1" parent="1">
                    <mxGeometry x="547.5" y="636.25" width="100" height="11" as="geometry"/>
                </mxCell>
                <mxCell id="265" value="" style="shape=partialRectangle;whiteSpace=wrap;html=1;left=0;right=0;fillColor=none;strokeColor=#000000;" vertex="1" parent="1">
                    <mxGeometry x="540" y="711.5" width="120" height="30" as="geometry"/>
                </mxCell>
                <mxCell id="266" value="" style="shape=partialRectangle;whiteSpace=wrap;html=1;left=0;right=0;fillColor=none;strokeColor=#000000;" vertex="1" parent="1">
                    <mxGeometry x="537.5" y="751.5" width="120" height="30" as="geometry"/>
                </mxCell>
                <mxCell id="267" value="Course Name" style="text;html=1;strokeColor=none;fillColor=none;align=center;verticalAlign=middle;whiteSpace=wrap;rounded=0;fontSize=12;fontColor=#100f0f;" vertex="1" parent="1">
                    <mxGeometry x="557.5" y="661.5" width="95" height="30" as="geometry"/>
                </mxCell>
                <mxCell id="268" value="Course Start Date" style="text;html=1;strokeColor=none;fillColor=none;align=center;verticalAlign=middle;whiteSpace=wrap;rounded=0;fontSize=12;fontColor=#100f0f;" vertex="1" parent="1">
                    <mxGeometry x="555" y="711.5" width="100" height="30" as="geometry"/>
                </mxCell>
                <mxCell id="269" value="Course End Date" style="text;html=1;strokeColor=none;fillColor=none;align=center;verticalAlign=middle;whiteSpace=wrap;rounded=0;fontSize=12;fontColor=#100f0f;" vertex="1" parent="1">
                    <mxGeometry x="557.5" y="751.5" width="95" height="30" as="geometry"/>
                </mxCell>
                <mxCell id="270" value="Cancel" style="text;html=1;strokeColor=none;fillColor=none;align=center;verticalAlign=middle;whiteSpace=wrap;rounded=0;fontSize=12;fontColor=#100f0f;" vertex="1" parent="1">
                    <mxGeometry x="607.5" y="1062.5" width="50" height="20" as="geometry"/>
                </mxCell>
                <mxCell id="271" value="Save" style="text;html=1;strokeColor=none;fillColor=none;align=center;verticalAlign=middle;whiteSpace=wrap;rounded=0;fontSize=12;fontColor=#100f0f;" vertex="1" parent="1">
                    <mxGeometry x="650" y="1062.5" width="50" height="20" as="geometry"/>
                </mxCell>
                <mxCell id="272" value="T" style="shape=partialRectangle;whiteSpace=wrap;html=1;left=0;right=0;fillColor=none;strokeColor=#000000;" vertex="1" parent="1">
                    <mxGeometry x="537.5" y="791.5" width="120" height="30" as="geometry"/>
                </mxCell>
                <mxCell id="273" value="" style="shape=partialRectangle;whiteSpace=wrap;html=1;left=0;right=0;fillColor=none;strokeColor=#000000;" vertex="1" parent="1">
                    <mxGeometry x="538.75" y="836.5" width="120" height="30" as="geometry"/>
                </mxCell>
                <mxCell id="274" value="" style="shape=partialRectangle;whiteSpace=wrap;html=1;left=0;right=0;fillColor=none;strokeColor=#000000;" vertex="1" parent="1">
                    <mxGeometry x="535" y="871.5" width="120" height="30" as="geometry"/>
                </mxCell>
                <mxCell id="275" value="Course Instructor First Name" style="text;html=1;strokeColor=none;fillColor=none;align=center;verticalAlign=middle;whiteSpace=wrap;rounded=0;fontSize=12;fontColor=#100f0f;" vertex="1" parent="1">
                    <mxGeometry x="550" y="791.5" width="97.5" height="30" as="geometry"/>
                </mxCell>
                <mxCell id="276" value="Course Instructor Last Name" style="text;html=1;strokeColor=none;fillColor=none;align=center;verticalAlign=middle;whiteSpace=wrap;rounded=0;fontSize=12;fontColor=#100f0f;" vertex="1" parent="1">
                    <mxGeometry x="553.13" y="836.5" width="98.75" height="30" as="geometry"/>
                </mxCell>
                <mxCell id="277" value="Course Instructor Email" style="text;html=1;strokeColor=none;fillColor=none;align=center;verticalAlign=middle;whiteSpace=wrap;rounded=0;fontSize=12;fontColor=#100f0f;" vertex="1" parent="1">
                    <mxGeometry x="557.5" y="871.5" width="95" height="30" as="geometry"/>
                </mxCell>
                <mxCell id="278" value="T" style="shape=partialRectangle;whiteSpace=wrap;html=1;left=0;right=0;fillColor=none;strokeColor=#000000;" vertex="1" parent="1">
                    <mxGeometry x="535" y="914" width="120" height="30" as="geometry"/>
                </mxCell>
                <mxCell id="279" value="" style="shape=partialRectangle;whiteSpace=wrap;html=1;left=0;right=0;fillColor=none;strokeColor=#000000;" vertex="1" parent="1">
                    <mxGeometry x="538.75" y="956.5" width="120" height="30" as="geometry"/>
                </mxCell>
                <mxCell id="280" value="Course Instructor Phone" style="text;html=1;strokeColor=none;fillColor=none;align=center;verticalAlign=middle;whiteSpace=wrap;rounded=0;fontSize=12;fontColor=#100f0f;" vertex="1" parent="1">
                    <mxGeometry x="548.13" y="914" width="101.25" height="30" as="geometry"/>
                </mxCell>
                <mxCell id="281" value="Course Status Dropdown" style="text;html=1;strokeColor=none;fillColor=none;align=center;verticalAlign=middle;whiteSpace=wrap;rounded=0;fontSize=12;fontColor=#100f0f;" vertex="1" parent="1">
                    <mxGeometry x="552.5" y="956.5" width="90" height="30" as="geometry"/>
                </mxCell>
                <mxCell id="282" value="" style="rounded=0;whiteSpace=wrap;html=1;strokeColor=#b85450;fontSize=12;fillColor=#f8cecc;" vertex="1" parent="1">
                    <mxGeometry x="490" y="992.5" width="207.5" height="40" as="geometry"/>
                </mxCell>
                <mxCell id="283" value="Delete" style="text;html=1;strokeColor=none;fillColor=none;align=center;verticalAlign=middle;whiteSpace=wrap;rounded=0;fontSize=12;fontColor=#100f0f;" vertex="1" parent="1">
                    <mxGeometry x="565.5" y="997.5" width="60" height="30" as="geometry"/>
                </mxCell>
                <mxCell id="284" value="" style="shape=flexArrow;endArrow=classic;html=1;strokeColor=default;fontColor=#FFFFFF;fillColor=#000000;entryX=0.5;entryY=0;entryDx=0;entryDy=0;exitX=0.25;exitY=1;exitDx=0;exitDy=0;" edge="1" parent="1" source="16" target="257">
                    <mxGeometry width="50" height="50" relative="1" as="geometry">
                        <mxPoint x="510" y="490" as="sourcePoint"/>
                        <mxPoint x="560" y="440" as="targetPoint"/>
                    </mxGeometry>
                </mxCell>
                <mxCell id="285" value="" style="rounded=0;whiteSpace=wrap;html=1;fontColor=#FFFFFF;fillColor=#000000;" vertex="1" parent="1">
                    <mxGeometry x="611.88" y="458.75" width="145" height="60" as="geometry"/>
                </mxCell>
                <mxCell id="286" value="Clicking the plus button will display the create course fragment" style="text;html=1;strokeColor=none;fillColor=none;align=center;verticalAlign=middle;whiteSpace=wrap;rounded=0;fontColor=#FFFFFF;" vertex="1" parent="1">
                    <mxGeometry x="619.38" y="473.75" width="130" height="30" as="geometry"/>
                </mxCell>
                <mxCell id="287" value="A long press will open the detail/modify view" style="text;html=1;strokeColor=none;fillColor=none;align=center;verticalAlign=middle;whiteSpace=wrap;rounded=0;fontColor=#FFFFFF;" vertex="1" parent="1">
                    <mxGeometry x="377" y="55.629999999999995" width="80" height="30" as="geometry"/>
                </mxCell>
                <mxCell id="288" value="" style="shape=flexArrow;endArrow=classic;html=1;strokeColor=default;fontColor=#FFFFFF;fillColor=#000000;exitX=1;exitY=0.75;exitDx=0;exitDy=0;entryX=0.169;entryY=1.011;entryDx=0;entryDy=0;entryPerimeter=0;" edge="1" parent="1" source="12" target="14">
                    <mxGeometry width="50" height="50" relative="1" as="geometry">
                        <mxPoint x="370" y="400" as="sourcePoint"/>
                        <mxPoint x="420" y="350" as="targetPoint"/>
                    </mxGeometry>
                </mxCell>
                <mxCell id="289" value="" style="shape=flexArrow;endArrow=classic;html=1;strokeColor=default;fontColor=#FFFFFF;fillColor=#000000;" edge="1" parent="1">
                    <mxGeometry width="50" height="50" relative="1" as="geometry">
                        <mxPoint x="320" y="-120" as="sourcePoint"/>
                        <mxPoint x="400" y="-260" as="targetPoint"/>
                    </mxGeometry>
                </mxCell>
                <mxCell id="290" value="" style="shape=flexArrow;endArrow=classic;html=1;strokeColor=default;fontColor=#FFFFFF;fillColor=#000000;exitX=0.5;exitY=0;exitDx=0;exitDy=0;" edge="1" parent="1" source="29">
                    <mxGeometry width="50" height="50" relative="1" as="geometry">
                        <mxPoint x="792.5" y="-141.8699999999999" as="sourcePoint"/>
                        <mxPoint x="630" y="-260" as="targetPoint"/>
                    </mxGeometry>
                </mxCell>
                <mxCell id="291" value="" style="shape=flexArrow;endArrow=classic;html=1;strokeColor=default;fontColor=#FFFFFF;fillColor=#000000;" edge="1" parent="1">
                    <mxGeometry width="50" height="50" relative="1" as="geometry">
                        <mxPoint x="1305.0100000000002" y="-91.24999999999989" as="sourcePoint"/>
                        <mxPoint x="660" y="-290" as="targetPoint"/>
                    </mxGeometry>
                </mxCell>
                <mxCell id="292" value="" style="shape=flexArrow;endArrow=classic;html=1;strokeColor=default;fontColor=#FFFFFF;fillColor=#000000;startArrow=none;" edge="1" parent="1" source="407">
                    <mxGeometry width="50" height="50" relative="1" as="geometry">
                        <mxPoint x="1794.38" y="-124.7399999999999" as="sourcePoint"/>
                        <mxPoint x="650" y="-350" as="targetPoint"/>
                    </mxGeometry>
                </mxCell>
                <mxCell id="295" value="" style="curved=1;endArrow=classic;html=1;strokeColor=default;fontColor=#FFFFFF;fillColor=#000000;shape=flexArrow;exitX=1;exitY=0.5;exitDx=0;exitDy=0;" edge="1" parent="1" source="19">
                    <mxGeometry width="50" height="50" relative="1" as="geometry">
                        <mxPoint x="870" y="10" as="sourcePoint"/>
                        <mxPoint x="940" y="570" as="targetPoint"/>
                        <Array as="points">
                            <mxPoint x="930" y="10"/>
                            <mxPoint x="930" y="170"/>
                        </Array>
                    </mxGeometry>
                </mxCell>
                <mxCell id="298" value="" style="rounded=1;whiteSpace=wrap;html=1;fontColor=#FFFFFF;fillColor=#000000;" vertex="1" parent="1">
                    <mxGeometry x="876.25" y="40.629999999999995" width="120" height="60" as="geometry"/>
                </mxCell>
                <mxCell id="299" value="A long press will open the detail/modify view" style="text;html=1;strokeColor=none;fillColor=none;align=center;verticalAlign=middle;whiteSpace=wrap;rounded=0;fontColor=#FFFFFF;" vertex="1" parent="1">
                    <mxGeometry x="898.25" y="55.629999999999995" width="80" height="30" as="geometry"/>
                </mxCell>
                <mxCell id="302" value="" style="rounded=1;whiteSpace=wrap;html=1;fontColor=#FFFFFF;fillColor=#000000;" vertex="1" parent="1">
                    <mxGeometry x="423" y="-46.870000000000005" width="120" height="60" as="geometry"/>
                </mxCell>
                <mxCell id="303" value="A tap will open that term and display its courses" style="text;html=1;strokeColor=none;fillColor=none;align=center;verticalAlign=middle;whiteSpace=wrap;rounded=0;fontColor=#FFFFFF;" vertex="1" parent="1">
                    <mxGeometry x="425" y="-33.870000000000005" width="120" height="30" as="geometry"/>
                </mxCell>
                <mxCell id="304" value="" style="shape=flexArrow;endArrow=classic;html=1;strokeColor=default;fontColor=#FFFFFF;fillColor=#000000;exitX=0.113;exitY=0;exitDx=0;exitDy=0;exitPerimeter=0;entryX=0.159;entryY=1.005;entryDx=0;entryDy=0;entryPerimeter=0;labelBackgroundColor=#000000;" edge="1" parent="1" source="14" target="31">
                    <mxGeometry width="50" height="50" relative="1" as="geometry">
                        <mxPoint x="900" y="140" as="sourcePoint"/>
                        <mxPoint x="950" y="90" as="targetPoint"/>
                    </mxGeometry>
                </mxCell>
                <mxCell id="305" value="" style="rounded=1;whiteSpace=wrap;html=1;fontColor=#FFFFFF;labelBackgroundColor=#000000;fillColor=#000000;" vertex="1" parent="1">
                    <mxGeometry x="910" y="-67.87" width="120" height="67.87" as="geometry"/>
                </mxCell>
                <mxCell id="306" value="A tap will open that course and display its notes" style="text;html=1;strokeColor=none;fillColor=none;align=center;verticalAlign=middle;whiteSpace=wrap;rounded=0;fontColor=#FFFFFF;" vertex="1" parent="1">
                    <mxGeometry x="908.75" y="-46.870000000000005" width="120" height="30" as="geometry"/>
                </mxCell>
                <mxCell id="308" value="" style="rounded=0;whiteSpace=wrap;html=1;rotation=90;fillColor=#f5f5f5;fontColor=#333333;strokeColor=#666666;" vertex="1" parent="1">
                    <mxGeometry x="985" y="707.5" width="495" height="257.5" as="geometry"/>
                </mxCell>
                <mxCell id="309" value="Create Note View" style="text;html=1;align=center;verticalAlign=middle;resizable=0;points=[];autosize=1;strokeColor=none;fillColor=#000000;fontColor=#FFFFFF;" vertex="1" parent="1">
                    <mxGeometry x="1095" y="553.75" width="120" height="30" as="geometry"/>
                </mxCell>
                <mxCell id="310" value="" style="rounded=1;whiteSpace=wrap;html=1;fontSize=8;fontColor=#ffffff;fillColor=#6a00ff;strokeColor=#3700CC;" vertex="1" parent="1">
                    <mxGeometry x="1315" y="1038.75" width="40" height="40" as="geometry"/>
                </mxCell>
                <mxCell id="311" value="" style="shape=cross;whiteSpace=wrap;html=1;fontSize=8;fontColor=#000000;size=0.24814588758680808;" vertex="1" parent="1">
                    <mxGeometry x="1320" y="1043.75" width="30" height="30" as="geometry"/>
                </mxCell>
                <mxCell id="313" value="Note Title" style="shape=ext;double=1;rounded=1;whiteSpace=wrap;html=1;fontSize=8;fontColor=#ffffff;fillColor=#6a00ff;strokeColor=#3700CC;" vertex="1" parent="1">
                    <mxGeometry x="1112.5" y="673.75" width="240" height="40" as="geometry"/>
                </mxCell>
                <mxCell id="314" value="" style="rounded=0;whiteSpace=wrap;html=1;fontSize=8;fontColor=#ffffff;fillColor=#6a00ff;strokeColor=#3700CC;" vertex="1" parent="1">
                    <mxGeometry x="1102.5" y="588.75" width="260" height="30" as="geometry"/>
                </mxCell>
                <mxCell id="315" value="" style="shape=flexArrow;endArrow=classic;html=1;fontSize=8;fontColor=#000000;width=6.666666666666666;endSize=5.166666666666667;strokeColor=#000000;fillColor=default;" edge="1" parent="1">
                    <mxGeometry width="50" height="50" relative="1" as="geometry">
                        <mxPoint x="1145" y="603.75" as="sourcePoint"/>
                        <mxPoint x="1105" y="603.3299999999999" as="targetPoint"/>
                    </mxGeometry>
                </mxCell>
                <mxCell id="316" value="&lt;font style=&quot;font-size: 10px;&quot; color=&quot;#ffffff&quot;&gt;C196 Exam&lt;/font&gt;" style="text;html=1;strokeColor=none;fillColor=none;align=center;verticalAlign=middle;whiteSpace=wrap;rounded=0;fontSize=8;fontColor=#000000;" vertex="1" parent="1">
                    <mxGeometry x="1145" y="588.75" width="60" height="30" as="geometry"/>
                </mxCell>
                <mxCell id="317" value="Add Notification" style="text;html=1;strokeColor=none;fillColor=none;align=center;verticalAlign=middle;whiteSpace=wrap;rounded=0;fontSize=10;fontColor=#FFFFFF;" vertex="1" parent="1">
                    <mxGeometry x="1305" y="588.75" width="60" height="30" as="geometry"/>
                </mxCell>
                <mxCell id="318" value="" style="rounded=0;whiteSpace=wrap;html=1;fillColor=#f5f5f5;fontColor=#333333;strokeColor=#666666;" vertex="1" parent="1">
                    <mxGeometry x="1127.5" y="700" width="210" height="180" as="geometry"/>
                </mxCell>
                <mxCell id="320" value="&lt;font style=&quot;font-size: 12px;&quot;&gt;Create Note&lt;/font&gt;" style="text;html=1;fontSize=24;fontStyle=1;verticalAlign=middle;align=center;fontColor=#100f0f;" vertex="1" parent="1">
                    <mxGeometry x="1182.5" y="720.25" width="100" height="11" as="geometry"/>
                </mxCell>
                <mxCell id="321" value="" style="shape=partialRectangle;whiteSpace=wrap;html=1;left=0;right=0;fillColor=none;strokeColor=#000000;" vertex="1" parent="1">
                    <mxGeometry x="1172.5" y="763.75" width="120" height="30" as="geometry"/>
                </mxCell>
                <mxCell id="322" value="" style="shape=partialRectangle;whiteSpace=wrap;html=1;left=0;right=0;fillColor=none;strokeColor=#000000;" vertex="1" parent="1">
                    <mxGeometry x="1170" y="803.75" width="120" height="30" as="geometry"/>
                </mxCell>
                <mxCell id="324" value="Note Title" style="text;html=1;strokeColor=none;fillColor=none;align=center;verticalAlign=middle;whiteSpace=wrap;rounded=0;fontSize=12;fontColor=#100f0f;" vertex="1" parent="1">
                    <mxGeometry x="1195" y="763.75" width="90" height="30" as="geometry"/>
                </mxCell>
                <mxCell id="325" value="Note Content" style="text;html=1;strokeColor=none;fillColor=none;align=center;verticalAlign=middle;whiteSpace=wrap;rounded=0;fontSize=12;fontColor=#100f0f;" vertex="1" parent="1">
                    <mxGeometry x="1195" y="803.75" width="90" height="30" as="geometry"/>
                </mxCell>
                <mxCell id="326" value="Cancel" style="text;html=1;strokeColor=none;fillColor=none;align=center;verticalAlign=middle;whiteSpace=wrap;rounded=0;fontSize=12;fontColor=#100f0f;" vertex="1" parent="1">
                    <mxGeometry x="1223.76" y="851.5" width="50" height="20" as="geometry"/>
                </mxCell>
                <mxCell id="327" value="Save" style="text;html=1;strokeColor=none;fillColor=none;align=center;verticalAlign=middle;whiteSpace=wrap;rounded=0;fontSize=12;fontColor=#100f0f;" vertex="1" parent="1">
                    <mxGeometry x="1278.76" y="851.5" width="50" height="20" as="geometry"/>
                </mxCell>
                <mxCell id="331" value="" style="endArrow=none;html=1;strokeColor=#000000;fontSize=8;fontColor=#FFFFFF;fillColor=default;" edge="1" parent="1">
                    <mxGeometry width="50" height="50" relative="1" as="geometry">
                        <mxPoint x="1107.5" y="636.25" as="sourcePoint"/>
                        <mxPoint x="1357.5" y="636.25" as="targetPoint"/>
                    </mxGeometry>
                </mxCell>
                <mxCell id="332" value="Notes" style="text;html=1;align=center;verticalAlign=middle;whiteSpace=wrap;rounded=0;fontSize=8;fontColor=#000000;" vertex="1" parent="1">
                    <mxGeometry x="1137.5" y="616.25" width="60" height="30" as="geometry"/>
                </mxCell>
                <mxCell id="333" value="Assessments" style="text;html=1;strokeColor=none;fillColor=none;align=center;verticalAlign=middle;whiteSpace=wrap;rounded=0;fontSize=8;fontColor=#000000;" vertex="1" parent="1">
                    <mxGeometry x="1277.5" y="616.25" width="60" height="30" as="geometry"/>
                </mxCell>
                <mxCell id="334" value="Instructor Name" style="text;html=1;strokeColor=none;fillColor=none;align=center;verticalAlign=middle;whiteSpace=wrap;rounded=0;fontSize=8;fontColor=#000000;" vertex="1" parent="1">
                    <mxGeometry x="1197.5" y="630" width="81.25" height="30" as="geometry"/>
                </mxCell>
                <mxCell id="335" value="Instructor Email" style="text;html=1;strokeColor=none;fillColor=none;align=center;verticalAlign=middle;whiteSpace=wrap;rounded=0;fontSize=8;fontColor=#000000;" vertex="1" parent="1">
                    <mxGeometry x="1197.5" y="646.25" width="80" height="20" as="geometry"/>
                </mxCell>
                <mxCell id="336" value="Instructor Phone" style="text;html=1;strokeColor=none;fillColor=none;align=center;verticalAlign=middle;whiteSpace=wrap;rounded=0;fontSize=8;fontColor=#000000;" vertex="1" parent="1">
                    <mxGeometry x="1198.75" y="661.25" width="80" height="15" as="geometry"/>
                </mxCell>
                <mxCell id="337" value="" style="curved=1;endArrow=classic;html=1;strokeColor=default;fontColor=#FFFFFF;fillColor=#000000;shape=flexArrow;entryX=1;entryY=0.25;entryDx=0;entryDy=0;exitX=0.085;exitY=0.994;exitDx=0;exitDy=0;exitPerimeter=0;" edge="1" parent="1" source="49" target="38">
                    <mxGeometry width="50" height="50" relative="1" as="geometry">
                        <mxPoint x="1566.25" y="-59.37" as="sourcePoint"/>
                        <mxPoint x="1355" y="-84.37" as="targetPoint"/>
                        <Array as="points">
                            <mxPoint x="1566.25" y="-119.37"/>
                            <mxPoint x="1426.25" y="-109.37"/>
                        </Array>
                    </mxGeometry>
                </mxCell>
                <mxCell id="338" value="" style="rounded=1;whiteSpace=wrap;html=1;fontColor=#FFFFFF;fillColor=#000000;" vertex="1" parent="1">
                    <mxGeometry x="1404.25" y="-143.74" width="120" height="60" as="geometry"/>
                </mxCell>
                <mxCell id="339" value="The back AND notes button will take you to the previous screen" style="text;html=1;strokeColor=none;fillColor=none;align=center;verticalAlign=middle;whiteSpace=wrap;rounded=0;fontColor=#FFFFFF;" vertex="1" parent="1">
                    <mxGeometry x="1404.25" y="-126.61000000000001" width="110" height="30" as="geometry"/>
                </mxCell>
                <mxCell id="340" value="" style="shape=flexArrow;endArrow=classic;html=1;strokeColor=default;fontColor=#FFFFFF;fillColor=#000000;exitX=0.25;exitY=1;exitDx=0;exitDy=0;" edge="1" parent="1" target="352">
                    <mxGeometry width="50" height="50" relative="1" as="geometry">
                        <mxPoint x="1785.63" y="392.5" as="sourcePoint"/>
                        <mxPoint x="1840" y="560" as="targetPoint"/>
                    </mxGeometry>
                </mxCell>
                <mxCell id="341" value="" style="rounded=0;whiteSpace=wrap;html=1;fontColor=#FFFFFF;fillColor=#000000;" vertex="1" parent="1">
                    <mxGeometry x="1728.13" y="430.31" width="145" height="60" as="geometry"/>
                </mxCell>
                <mxCell id="342" value="Clicking the plus button will display the create assessment fragment" style="text;html=1;strokeColor=none;fillColor=none;align=center;verticalAlign=middle;whiteSpace=wrap;rounded=0;fontColor=#FFFFFF;" vertex="1" parent="1">
                    <mxGeometry x="1735.63" y="445.31" width="130" height="30" as="geometry"/>
                </mxCell>
                <mxCell id="343" value="" style="curved=1;endArrow=classic;html=1;strokeColor=default;fontColor=#FFFFFF;fillColor=#000000;shape=flexArrow;exitX=1;exitY=0.5;exitDx=0;exitDy=0;" edge="1" parent="1" source="52" target="132">
                    <mxGeometry width="50" height="50" relative="1" as="geometry">
                        <mxPoint x="1640" y="300" as="sourcePoint"/>
                        <mxPoint x="2180" y="550" as="targetPoint"/>
                        <Array as="points">
                            <mxPoint x="1970" y="-10"/>
                            <mxPoint x="2070" y="230"/>
                        </Array>
                    </mxGeometry>
                </mxCell>
                <mxCell id="349" value="Objective Assessment" style="rounded=1;align=left;verticalAlign=middle;fontStyle=0;fontSize=12;labelPosition=right;verticalLabelPosition=middle;spacingLeft=10;html=1;shadow=0;dashed=0;fillColor=#f5f5f5;fontColor=#333333;strokeColor=#666666;" vertex="1" parent="1">
                    <mxGeometry x="2303.63" y="795.25" width="12" height="12" as="geometry"/>
                </mxCell>
                <mxCell id="350" value="Performance Assessment" style="rounded=1;align=left;verticalAlign=middle;fontStyle=0;fontSize=12;labelPosition=right;verticalLabelPosition=middle;spacingLeft=10;html=1;shadow=0;dashed=0;fillColor=#f5f5f5;fontColor=#333333;strokeColor=#666666;" vertex="1" parent="1">
                    <mxGeometry x="2303.88" y="812.75" width="12" height="12" as="geometry"/>
                </mxCell>
                <mxCell id="351" value="" style="rounded=0;whiteSpace=wrap;html=1;rotation=90;fillColor=#f5f5f5;fontColor=#333333;strokeColor=#666666;" vertex="1" parent="1">
                    <mxGeometry x="1873.13" y="716.25" width="495" height="257.5" as="geometry"/>
                </mxCell>
                <mxCell id="352" value="Create Assessment" style="text;html=1;align=center;verticalAlign=middle;resizable=0;points=[];autosize=1;strokeColor=none;fillColor=#000000;fontColor=#FFFFFF;" vertex="1" parent="1">
                    <mxGeometry x="1978.7600000000002" y="558.75" width="130" height="30" as="geometry"/>
                </mxCell>
                <mxCell id="353" value="" style="rounded=1;whiteSpace=wrap;html=1;fontSize=8;fontColor=#ffffff;fillColor=#6a00ff;strokeColor=#3700CC;" vertex="1" parent="1">
                    <mxGeometry x="2198.13" y="1046.25" width="40" height="40" as="geometry"/>
                </mxCell>
                <mxCell id="354" value="" style="shape=cross;whiteSpace=wrap;html=1;fontSize=8;fontColor=#000000;size=0.24814588758680808;" vertex="1" parent="1">
                    <mxGeometry x="2203.13" y="1051.25" width="30" height="30" as="geometry"/>
                </mxCell>
                <mxCell id="355" value="Course Name" style="shape=ext;double=1;rounded=1;whiteSpace=wrap;html=1;fontSize=8;fontColor=#ffffff;fillColor=#6a00ff;strokeColor=#3700CC;" vertex="1" parent="1">
                    <mxGeometry x="2000.63" y="635" width="240" height="40" as="geometry"/>
                </mxCell>
                <mxCell id="356" value="Course Name" style="shape=ext;double=1;rounded=1;whiteSpace=wrap;html=1;fontSize=8;fontColor=#ffffff;fillColor=#6a00ff;strokeColor=#3700CC;" vertex="1" parent="1">
                    <mxGeometry x="2000.63" y="686.25" width="240" height="40" as="geometry"/>
                </mxCell>
                <mxCell id="357" value="" style="rounded=0;whiteSpace=wrap;html=1;fontSize=8;fontColor=#ffffff;fillColor=#6a00ff;strokeColor=#3700CC;" vertex="1" parent="1">
                    <mxGeometry x="1986.88" y="600" width="260" height="30" as="geometry"/>
                </mxCell>
                <mxCell id="358" value="" style="shape=flexArrow;endArrow=classic;html=1;fontSize=8;fontColor=#000000;width=6.666666666666666;endSize=5.166666666666667;strokeColor=#000000;fillColor=default;" edge="1" parent="1">
                    <mxGeometry width="50" height="50" relative="1" as="geometry">
                        <mxPoint x="2029.38" y="615" as="sourcePoint"/>
                        <mxPoint x="1989.38" y="614.5799999999999" as="targetPoint"/>
                    </mxGeometry>
                </mxCell>
                <mxCell id="359" value="&lt;font style=&quot;font-size: 10px;&quot; color=&quot;#ffffff&quot;&gt;C196 Exam&lt;/font&gt;" style="text;html=1;strokeColor=none;fillColor=none;align=center;verticalAlign=middle;whiteSpace=wrap;rounded=0;fontSize=8;fontColor=#000000;" vertex="1" parent="1">
                    <mxGeometry x="2029.38" y="600" width="60" height="20" as="geometry"/>
                </mxCell>
                <mxCell id="360" value="Add Notification" style="text;html=1;strokeColor=none;fillColor=none;align=center;verticalAlign=middle;whiteSpace=wrap;rounded=0;fontSize=10;fontColor=#FFFFFF;" vertex="1" parent="1">
                    <mxGeometry x="2189.38" y="600" width="60" height="30" as="geometry"/>
                </mxCell>
                <mxCell id="361" value="&lt;font style=&quot;font-size: 8px;&quot;&gt;Term Start - End&lt;/font&gt;" style="text;html=1;strokeColor=none;fillColor=none;align=center;verticalAlign=middle;whiteSpace=wrap;rounded=0;fontSize=10;fontColor=#FFFFFF;" vertex="1" parent="1">
                    <mxGeometry x="2029.38" y="608.75" width="91.25" height="30" as="geometry"/>
                </mxCell>
                <mxCell id="362" value="" style="rounded=0;whiteSpace=wrap;html=1;fillColor=#f5f5f5;fontColor=#333333;strokeColor=#666666;" vertex="1" parent="1">
                    <mxGeometry x="2013.13" y="688.75" width="210" height="227.5" as="geometry"/>
                </mxCell>
                <mxCell id="363" value="T" style="shape=partialRectangle;whiteSpace=wrap;html=1;left=0;right=0;fillColor=none;strokeColor=#000000;" vertex="1" parent="1">
                    <mxGeometry x="2061.26" y="724.5" width="120" height="30" as="geometry"/>
                </mxCell>
                <mxCell id="364" value="&lt;font style=&quot;font-size: 12px;&quot;&gt;Modify Assessment&lt;/font&gt;" style="text;html=1;fontSize=24;fontStyle=1;verticalAlign=middle;align=center;fontColor=#100f0f;" vertex="1" parent="1">
                    <mxGeometry x="2068.76" y="699.25" width="100" height="11" as="geometry"/>
                </mxCell>
                <mxCell id="365" value="" style="shape=partialRectangle;whiteSpace=wrap;html=1;left=0;right=0;fillColor=none;strokeColor=#000000;" vertex="1" parent="1">
                    <mxGeometry x="2061.88" y="760.25" width="120" height="30" as="geometry"/>
                </mxCell>
                <mxCell id="366" value="" style="shape=partialRectangle;whiteSpace=wrap;html=1;left=0;right=0;fillColor=none;strokeColor=#000000;" vertex="1" parent="1">
                    <mxGeometry x="2059.38" y="800.25" width="120" height="30" as="geometry"/>
                </mxCell>
                <mxCell id="367" value="Assessment Name" style="text;html=1;strokeColor=none;fillColor=none;align=center;verticalAlign=middle;whiteSpace=wrap;rounded=0;fontSize=12;fontColor=#100f0f;" vertex="1" parent="1">
                    <mxGeometry x="2067.51" y="724.5" width="120" height="30" as="geometry"/>
                </mxCell>
                <mxCell id="368" value="Assessment &lt;br&gt;Start Date" style="text;html=1;strokeColor=none;fillColor=none;align=center;verticalAlign=middle;whiteSpace=wrap;rounded=0;fontSize=12;fontColor=#100f0f;" vertex="1" parent="1">
                    <mxGeometry x="2076.88" y="760.25" width="100" height="30" as="geometry"/>
                </mxCell>
                <mxCell id="369" value="Assessment End Date" style="text;html=1;strokeColor=none;fillColor=none;align=center;verticalAlign=middle;whiteSpace=wrap;rounded=0;fontSize=12;fontColor=#100f0f;" vertex="1" parent="1">
                    <mxGeometry x="2079.38" y="800.25" width="95" height="30" as="geometry"/>
                </mxCell>
                <mxCell id="370" value="Cancel" style="text;html=1;strokeColor=none;fillColor=none;align=center;verticalAlign=middle;whiteSpace=wrap;rounded=0;fontSize=12;fontColor=#100f0f;" vertex="1" parent="1">
                    <mxGeometry x="2113.26" y="876.25" width="50" height="20" as="geometry"/>
                </mxCell>
                <mxCell id="371" style="edgeStyle=none;html=1;exitX=0.5;exitY=0;exitDx=0;exitDy=0;" edge="1" parent="1" source="372">
                    <mxGeometry relative="1" as="geometry">
                        <mxPoint x="2204.138620689655" y="901.25" as="targetPoint"/>
                    </mxGeometry>
                </mxCell>
                <mxCell id="372" value="Save" style="text;html=1;strokeColor=none;fillColor=none;align=center;verticalAlign=middle;whiteSpace=wrap;rounded=0;fontSize=12;fontColor=#100f0f;" vertex="1" parent="1">
                    <mxGeometry x="2165.13" y="876.25" width="50" height="20" as="geometry"/>
                </mxCell>
                <mxCell id="375" value="Objective Assessment" style="rounded=1;align=left;verticalAlign=middle;fontStyle=0;fontSize=12;labelPosition=right;verticalLabelPosition=middle;spacingLeft=10;html=1;shadow=0;dashed=0;fillColor=#f5f5f5;fontColor=#333333;strokeColor=#666666;" vertex="1" parent="1">
                    <mxGeometry x="2029.13" y="837.75" width="12" height="12" as="geometry"/>
                </mxCell>
                <mxCell id="376" value="Performance Assessment" style="rounded=1;align=left;verticalAlign=middle;fontStyle=0;fontSize=12;labelPosition=right;verticalLabelPosition=middle;spacingLeft=10;html=1;shadow=0;dashed=0;fillColor=#f5f5f5;fontColor=#333333;strokeColor=#666666;" vertex="1" parent="1">
                    <mxGeometry x="2029.38" y="855.25" width="12" height="12" as="geometry"/>
                </mxCell>
                <mxCell id="377" value="" style="rounded=0;whiteSpace=wrap;html=1;rotation=90;fillColor=#f5f5f5;fontColor=#333333;strokeColor=#666666;" vertex="1" parent="1">
                    <mxGeometry x="1273.76" y="717.5" width="495" height="257.5" as="geometry"/>
                </mxCell>
                <mxCell id="378" value="Create Note View" style="text;html=1;align=center;verticalAlign=middle;resizable=0;points=[];autosize=1;strokeColor=none;fillColor=#000000;fontColor=#FFFFFF;" vertex="1" parent="1">
                    <mxGeometry x="1383.76" y="563.75" width="120" height="30" as="geometry"/>
                </mxCell>
                <mxCell id="379" value="" style="rounded=1;whiteSpace=wrap;html=1;fontSize=8;fontColor=#ffffff;fillColor=#6a00ff;strokeColor=#3700CC;" vertex="1" parent="1">
                    <mxGeometry x="1603.76" y="1048.75" width="40" height="40" as="geometry"/>
                </mxCell>
                <mxCell id="380" value="" style="shape=cross;whiteSpace=wrap;html=1;fontSize=8;fontColor=#000000;size=0.24814588758680808;" vertex="1" parent="1">
                    <mxGeometry x="1608.76" y="1053.75" width="30" height="30" as="geometry"/>
                </mxCell>
                <mxCell id="381" value="Note Title" style="shape=ext;double=1;rounded=1;whiteSpace=wrap;html=1;fontSize=8;fontColor=#ffffff;fillColor=#6a00ff;strokeColor=#3700CC;" vertex="1" parent="1">
                    <mxGeometry x="1401.26" y="683.75" width="240" height="40" as="geometry"/>
                </mxCell>
                <mxCell id="382" value="" style="rounded=0;whiteSpace=wrap;html=1;fontSize=8;fontColor=#ffffff;fillColor=#6a00ff;strokeColor=#3700CC;" vertex="1" parent="1">
                    <mxGeometry x="1391.26" y="598.75" width="260" height="30" as="geometry"/>
                </mxCell>
                <mxCell id="383" value="" style="shape=flexArrow;endArrow=classic;html=1;fontSize=8;fontColor=#000000;width=6.666666666666666;endSize=5.166666666666667;strokeColor=#000000;fillColor=default;" edge="1" parent="1">
                    <mxGeometry width="50" height="50" relative="1" as="geometry">
                        <mxPoint x="1433.76" y="613.7499999999995" as="sourcePoint"/>
                        <mxPoint x="1393.76" y="613.3299999999999" as="targetPoint"/>
                    </mxGeometry>
                </mxCell>
                <mxCell id="384" value="&lt;font style=&quot;font-size: 10px;&quot; color=&quot;#ffffff&quot;&gt;C196 Exam&lt;/font&gt;" style="text;html=1;strokeColor=none;fillColor=none;align=center;verticalAlign=middle;whiteSpace=wrap;rounded=0;fontSize=8;fontColor=#000000;" vertex="1" parent="1">
                    <mxGeometry x="1433.76" y="598.75" width="60" height="30" as="geometry"/>
                </mxCell>
                <mxCell id="385" value="Add Notification" style="text;html=1;strokeColor=none;fillColor=none;align=center;verticalAlign=middle;whiteSpace=wrap;rounded=0;fontSize=10;fontColor=#FFFFFF;" vertex="1" parent="1">
                    <mxGeometry x="1593.76" y="598.75" width="60" height="30" as="geometry"/>
                </mxCell>
                <mxCell id="386" value="" style="rounded=0;whiteSpace=wrap;html=1;fillColor=#f5f5f5;fontColor=#333333;strokeColor=#666666;" vertex="1" parent="1">
                    <mxGeometry x="1416.26" y="710" width="210" height="200" as="geometry"/>
                </mxCell>
                <mxCell id="387" value="&lt;font style=&quot;font-size: 12px;&quot;&gt;Modify Note&lt;/font&gt;" style="text;html=1;fontSize=24;fontStyle=1;verticalAlign=middle;align=center;fontColor=#100f0f;" vertex="1" parent="1">
                    <mxGeometry x="1471.26" y="730.25" width="100" height="11" as="geometry"/>
                </mxCell>
                <mxCell id="388" value="" style="shape=partialRectangle;whiteSpace=wrap;html=1;left=0;right=0;fillColor=none;strokeColor=#000000;" vertex="1" parent="1">
                    <mxGeometry x="1464.3799999999999" y="754.5" width="120" height="30" as="geometry"/>
                </mxCell>
                <mxCell id="389" value="" style="shape=partialRectangle;whiteSpace=wrap;html=1;left=0;right=0;fillColor=none;strokeColor=#000000;" vertex="1" parent="1">
                    <mxGeometry x="1461.8799999999999" y="794.5" width="120" height="30" as="geometry"/>
                </mxCell>
                <mxCell id="390" value="Note Title" style="text;html=1;strokeColor=none;fillColor=none;align=center;verticalAlign=middle;whiteSpace=wrap;rounded=0;fontSize=12;fontColor=#100f0f;" vertex="1" parent="1">
                    <mxGeometry x="1486.8799999999999" y="754.5" width="90" height="30" as="geometry"/>
                </mxCell>
                <mxCell id="391" value="Note Content" style="text;html=1;strokeColor=none;fillColor=none;align=center;verticalAlign=middle;whiteSpace=wrap;rounded=0;fontSize=12;fontColor=#100f0f;" vertex="1" parent="1">
                    <mxGeometry x="1486.8799999999999" y="794.5" width="90" height="30" as="geometry"/>
                </mxCell>
                <mxCell id="392" value="Cancel" style="text;html=1;strokeColor=none;fillColor=none;align=center;verticalAlign=middle;whiteSpace=wrap;rounded=0;fontSize=12;fontColor=#100f0f;" vertex="1" parent="1">
                    <mxGeometry x="1512.52" y="881.5" width="50" height="20" as="geometry"/>
                </mxCell>
                <mxCell id="393" value="Save" style="text;html=1;strokeColor=none;fillColor=none;align=center;verticalAlign=middle;whiteSpace=wrap;rounded=0;fontSize=12;fontColor=#100f0f;" vertex="1" parent="1">
                    <mxGeometry x="1566.26" y="881.5" width="50" height="20" as="geometry"/>
                </mxCell>
                <mxCell id="394" value="" style="endArrow=none;html=1;strokeColor=#000000;fontSize=8;fontColor=#FFFFFF;fillColor=default;" edge="1" parent="1">
                    <mxGeometry width="50" height="50" relative="1" as="geometry">
                        <mxPoint x="1396.26" y="646.2499999999995" as="sourcePoint"/>
                        <mxPoint x="1646.26" y="646.2499999999995" as="targetPoint"/>
                    </mxGeometry>
                </mxCell>
                <mxCell id="395" value="Notes" style="text;html=1;align=center;verticalAlign=middle;whiteSpace=wrap;rounded=0;fontSize=8;fontColor=#000000;" vertex="1" parent="1">
                    <mxGeometry x="1426.26" y="626.25" width="60" height="30" as="geometry"/>
                </mxCell>
                <mxCell id="396" value="Assessments" style="text;html=1;strokeColor=none;fillColor=none;align=center;verticalAlign=middle;whiteSpace=wrap;rounded=0;fontSize=8;fontColor=#000000;" vertex="1" parent="1">
                    <mxGeometry x="1566.26" y="626.25" width="60" height="30" as="geometry"/>
                </mxCell>
                <mxCell id="397" value="Instructor Name" style="text;html=1;strokeColor=none;fillColor=none;align=center;verticalAlign=middle;whiteSpace=wrap;rounded=0;fontSize=8;fontColor=#000000;" vertex="1" parent="1">
                    <mxGeometry x="1486.26" y="640" width="81.25" height="30" as="geometry"/>
                </mxCell>
                <mxCell id="398" value="Instructor Email" style="text;html=1;strokeColor=none;fillColor=none;align=center;verticalAlign=middle;whiteSpace=wrap;rounded=0;fontSize=8;fontColor=#000000;" vertex="1" parent="1">
                    <mxGeometry x="1486.26" y="656.25" width="80" height="20" as="geometry"/>
                </mxCell>
                <mxCell id="399" value="Instructor Phone" style="text;html=1;strokeColor=none;fillColor=none;align=center;verticalAlign=middle;whiteSpace=wrap;rounded=0;fontSize=8;fontColor=#000000;" vertex="1" parent="1">
                    <mxGeometry x="1487.51" y="671.25" width="80" height="15" as="geometry"/>
                </mxCell>
                <mxCell id="400" value="" style="shape=flexArrow;endArrow=classic;html=1;strokeColor=default;fontColor=#FFFFFF;fillColor=default;exitX=0.086;exitY=0.004;exitDx=0;exitDy=0;exitPerimeter=0;" edge="1" parent="1" source="31">
                    <mxGeometry width="50" height="50" relative="1" as="geometry">
                        <mxPoint x="1360" y="90" as="sourcePoint"/>
                        <mxPoint x="1570" y="-20" as="targetPoint"/>
                    </mxGeometry>
                </mxCell>
                <mxCell id="401" value="" style="rounded=1;whiteSpace=wrap;html=1;fillColor=#000000;" vertex="1" parent="1">
                    <mxGeometry x="1394" y="-74" width="120" height="60" as="geometry"/>
                </mxCell>
                <mxCell id="402" value="Tap on the assessments tab to view all assessments for the course" style="text;html=1;strokeColor=none;fillColor=none;align=center;verticalAlign=middle;whiteSpace=wrap;rounded=0;fontColor=#FFFFFF;" vertex="1" parent="1">
                    <mxGeometry x="1401.26" y="-63.87" width="108.74" height="43.87" as="geometry"/>
                </mxCell>
                <mxCell id="404" value="" style="rounded=1;whiteSpace=wrap;html=1;fillColor=#000000;" vertex="1" parent="1">
                    <mxGeometry x="300" y="-220" width="120" height="60" as="geometry"/>
                </mxCell>
                <mxCell id="405" value="This button will open the create notification dialog" style="text;html=1;strokeColor=none;fillColor=none;align=center;verticalAlign=middle;whiteSpace=wrap;rounded=0;fontColor=#FFFFFF;" vertex="1" parent="1">
                    <mxGeometry x="314" y="-205" width="92" height="30" as="geometry"/>
                </mxCell>
                <mxCell id="406" value="" style="rounded=1;whiteSpace=wrap;html=1;fillColor=#000000;" vertex="1" parent="1">
                    <mxGeometry x="1665.63" y="-191.87" width="120" height="60" as="geometry"/>
                </mxCell>
                <mxCell id="408" value="" style="rounded=1;whiteSpace=wrap;html=1;fillColor=#000000;" vertex="1" parent="1">
                    <mxGeometry x="1217.5" y="-165" width="120" height="60" as="geometry"/>
                </mxCell>
                <mxCell id="409" value="This button will open the create notification dialog" style="text;html=1;strokeColor=none;fillColor=none;align=center;verticalAlign=middle;whiteSpace=wrap;rounded=0;fontColor=#FFFFFF;" vertex="1" parent="1">
                    <mxGeometry x="1238.5" y="-150" width="92" height="30" as="geometry"/>
                </mxCell>
                <mxCell id="410" value="" style="rounded=1;whiteSpace=wrap;html=1;fillColor=#000000;" vertex="1" parent="1">
                    <mxGeometry x="690" y="-195" width="120" height="60" as="geometry"/>
                </mxCell>
                <mxCell id="411" value="This button will open the create notification dialog" style="text;html=1;strokeColor=none;fillColor=none;align=center;verticalAlign=middle;whiteSpace=wrap;rounded=0;fontColor=#FFFFFF;" vertex="1" parent="1">
                    <mxGeometry x="704" y="-180" width="92" height="30" as="geometry"/>
                </mxCell>
                <mxCell id="407" value="This button will open the create notification dialog" style="text;html=1;strokeColor=none;fillColor=none;align=center;verticalAlign=middle;whiteSpace=wrap;rounded=0;fontColor=#FFFFFF;" vertex="1" parent="1">
                    <mxGeometry x="1683.63" y="-176.87" width="92" height="30" as="geometry"/>
                </mxCell>
                <mxCell id="413" value="" style="rounded=0;whiteSpace=wrap;html=1;strokeColor=#b85450;fontSize=12;fillColor=#f8cecc;" vertex="1" parent="1">
                    <mxGeometry x="1418.7600000000002" y="840" width="207.5" height="40" as="geometry"/>
                </mxCell>
                <mxCell id="414" value="Delete" style="text;html=1;strokeColor=none;fillColor=none;align=center;verticalAlign=middle;whiteSpace=wrap;rounded=0;fontSize=12;fontColor=#100f0f;" vertex="1" parent="1">
                    <mxGeometry x="1491.88" y="845" width="60" height="30" as="geometry"/>
                </mxCell>
                <mxCell id="415" value="" style="html=1;verticalLabelPosition=bottom;align=center;labelBackgroundColor=#ffffff;verticalAlign=top;strokeWidth=2;strokeColor=#0080F0;shadow=0;dashed=0;shape=mxgraph.ios7.icons.share;fontColor=#FFFFFF;fillColor=#808080;" vertex="1" parent="1">
                    <mxGeometry x="1293" y="27" width="21" height="28.5" as="geometry"/>
                </mxCell>
                <mxCell id="416" value="" style="html=1;verticalLabelPosition=bottom;align=center;labelBackgroundColor=#ffffff;verticalAlign=top;strokeWidth=2;strokeColor=#0080F0;shadow=0;dashed=0;shape=mxgraph.ios7.icons.share;fontColor=#FFFFFF;fillColor=#808080;" vertex="1" parent="1">
                    <mxGeometry x="1290.63" y="76.38" width="21" height="28.5" as="geometry"/>
                </mxCell>
                <mxCell id="417" value="" style="curved=1;endArrow=classic;html=1;strokeColor=default;fontColor=#FFFFFF;fillColor=#000000;shape=flexArrow;entryX=-0.043;entryY=0.019;entryDx=0;entryDy=0;entryPerimeter=0;exitX=0.25;exitY=0;exitDx=0;exitDy=0;" edge="1" parent="1" source="31" target="181">
                    <mxGeometry width="50" height="50" relative="1" as="geometry">
                        <mxPoint x="1370" y="320" as="sourcePoint"/>
                        <mxPoint x="1420" y="270" as="targetPoint"/>
                        <Array as="points">
                            <mxPoint x="1550" y="120"/>
                            <mxPoint x="1560" y="410"/>
                        </Array>
                    </mxGeometry>
                </mxCell>
                <mxCell id="418" value="" style="shape=flexArrow;endArrow=classic;html=1;strokeColor=default;fontColor=#FFFFFF;fillColor=#000000;exitX=0.25;exitY=1;exitDx=0;exitDy=0;entryX=0.982;entryY=-0.133;entryDx=0;entryDy=0;entryPerimeter=0;" edge="1" parent="1" source="32" target="309">
                    <mxGeometry width="50" height="50" relative="1" as="geometry">
                        <mxPoint x="1220" y="340" as="sourcePoint"/>
                        <mxPoint x="1270" y="290" as="targetPoint"/>
                    </mxGeometry>
                </mxCell>
                <mxCell id="419" value="" style="rounded=0;whiteSpace=wrap;html=1;fontColor=#FFFFFF;fillColor=#000000;" vertex="1" parent="1">
                    <mxGeometry x="1160" y="443.75" width="145" height="60" as="geometry"/>
                </mxCell>
                <mxCell id="420" value="Clicking the plus button will display the create note fragment" style="text;html=1;strokeColor=none;fillColor=none;align=center;verticalAlign=middle;whiteSpace=wrap;rounded=0;fontColor=#FFFFFF;" vertex="1" parent="1">
                    <mxGeometry x="1167.5" y="458.75" width="130" height="30" as="geometry"/>
                </mxCell>
                <mxCell id="421" value="" style="rounded=1;whiteSpace=wrap;html=1;fillColor=#000000;" vertex="1" parent="1">
                    <mxGeometry x="1404" y="30" width="120" height="60" as="geometry"/>
                </mxCell>
                <mxCell id="422" value="Tapping the share icon will display the share menu" style="text;html=1;strokeColor=none;fillColor=none;align=center;verticalAlign=middle;whiteSpace=wrap;rounded=0;fontColor=#FFFFFF;" vertex="1" parent="1">
                    <mxGeometry x="1405.76" y="46.38" width="116" height="30" as="geometry"/>
                </mxCell>
                <mxCell id="424" value="" style="curved=1;endArrow=classic;html=1;strokeColor=default;fontColor=#FFFFFF;fillColor=#000000;shape=flexArrow;exitX=0.344;exitY=-0.017;exitDx=0;exitDy=0;exitPerimeter=0;" edge="1" parent="1" source="31">
                    <mxGeometry width="50" height="50" relative="1" as="geometry">
                        <mxPoint x="1530" y="350" as="sourcePoint"/>
                        <mxPoint x="1460" y="550" as="targetPoint"/>
                        <Array as="points">
                            <mxPoint x="1420" y="380"/>
                        </Array>
                    </mxGeometry>
                </mxCell>
                <mxCell id="425" value="" style="rounded=1;whiteSpace=wrap;html=1;fillColor=#000000;" vertex="1" parent="1">
                    <mxGeometry x="1363" y="240" width="120" height="70" as="geometry"/>
                </mxCell>
                <mxCell id="426" value="A long press on the note will display the detail/modify view" style="text;html=1;strokeColor=none;fillColor=none;align=center;verticalAlign=middle;whiteSpace=wrap;rounded=0;fontColor=#FFFFFF;" vertex="1" parent="1">
                    <mxGeometry x="1366.63" y="240" width="113.37" height="50" as="geometry"/>
                </mxCell>
                <mxCell id="427" value="" style="rounded=1;whiteSpace=wrap;html=1;fillColor=#000000;" vertex="1" parent="1">
                    <mxGeometry x="1880.63" y="-46.870000000000005" width="120" height="60" as="geometry"/>
                </mxCell>
                <mxCell id="428" value="A long press on the assment will display the detail/modify view" style="text;html=1;strokeColor=none;fillColor=none;align=center;verticalAlign=middle;whiteSpace=wrap;rounded=0;fontColor=#FFFFFF;" vertex="1" parent="1">
                    <mxGeometry x="1883.94" y="-24.369999999999997" width="113.37" height="20" as="geometry"/>
                </mxCell>
                <mxCell id="9" value="Term List" style="text;html=1;align=center;verticalAlign=middle;resizable=0;points=[];autosize=1;strokeColor=none;fillColor=#000000;fontColor=#FFFFFF;" parent="1" vertex="1">
                    <mxGeometry x="110" y="-161.87" width="70" height="30" as="geometry"/>
                </mxCell>
            </root>
        </mxGraphModel>
    </diagram>
</mxfile>